<svg width="37" height="38" viewBox="0 0 37 38" fill="none" xmlns="http://www.w3.org/2000/svg">
<path fill-rule="evenodd" clip-rule="evenodd" d="M15.9891 0.586607C16.7712 -0.195535 18.0393 -0.195536 18.8215 0.586606L35.6322 17.3974C36.1028 17.8679 36.2902 18.5143 36.1946 19.125C36.217 19.6789 36.0167 20.2401 35.5938 20.663L18.8597 37.3972C18.0564 38.2005 16.754 38.2005 15.9507 37.3972C15.1474 36.5939 15.1474 35.2915 15.9507 34.4882L29.3237 21.1151H2.1945C0.982513 21.1151 0 20.1326 0 18.9206C0 17.7086 0.982513 16.7261 2.1945 16.7261H29.2962L15.9891 3.419C15.2069 2.63685 15.2069 1.36875 15.9891 0.586607Z" fill="white"/>
</svg>
