<?xml version="1.0" encoding="UTF-8"?>
<svg id="Calque_2" data-name="Calque 2" xmlns="http://www.w3.org/2000/svg" xmlns:xlink="http://www.w3.org/1999/xlink" viewBox="0 0 697.64 289.31">
  <defs>
    <style>
      .cls-1 {
        fill: none;
      }

      .cls-2 {
        fill: #ea5b0c;
      }

      .cls-3 {
        fill: #fff;
      }

      .cls-4 {
        fill: #ffcd02;
      }

      .cls-5 {
        fill: #203c8a;
      }

      .cls-6 {
        clip-path: url(#clippath-1);
      }

      .cls-7 {
        clip-path: url(#clippath-4);
      }

      .cls-8 {
        clip-path: url(#clippath-3);
      }

      .cls-9 {
        clip-path: url(#clippath-2);
      }

      .cls-10 {
        clip-path: url(#clippath-7);
      }

      .cls-11 {
        clip-path: url(#clippath-8);
      }

      .cls-12 {
        clip-path: url(#clippath-6);
      }

      .cls-13 {
        clip-path: url(#clippath-5);
      }

      .cls-14 {
        fill: url(#Dégradé_sans_nom);
      }
    </style>
    <clipPath id="clippath-1">
      <path class="cls-1" d="m606.88,193.5c-.85.56-1.1,1.72-.53,2.58.56.86,1.71,1.1,2.57.54.87-.56,1.1-1.72.54-2.57-.35-.55-.94-.84-1.55-.84-.35,0-.7.1-1.02.3m15.94-12.95c-.73.72-.73,1.9-.01,2.63.71.73,1.9.74,2.63.02.74-.72.74-1.9.02-2.63-.36-.37-.84-.56-1.33-.56s-.95.18-1.31.54m-14.22-1.01c-1.08.7-1.38,2.14-.68,3.22s2.14,1.38,3.21.68c1.08-.7,1.38-2.14.68-3.21-.45-.69-1.19-1.06-1.95-1.06-.43,0-.87.12-1.26.37m-14.22-3.49c-1.68,1.08-2.17,3.32-1.1,5.02,1.08,1.68,3.32,2.17,5.01,1.1,1.69-1.08,2.19-3.33,1.1-5.01-.69-1.08-1.87-1.68-3.07-1.68-.67,0-1.35.18-1.95.57m39.77-8.82c-.6.84-.41,2,.42,2.6.84.6,2,.41,2.6-.42s.41-2-.42-2.59c-.33-.24-.71-.35-1.09-.35-.58,0-1.15.27-1.51.77m-12.28-.84c-.92.91-.93,2.38-.03,3.29.9.91,2.38.92,3.29.03.91-.91.92-2.38.02-3.29-.45-.46-1.05-.7-1.65-.7s-1.17.22-1.63.66m-14.59-.63c-1.44,1.4-1.47,3.69-.08,5.14,1.4,1.43,3.7,1.47,5.13.08,1.44-1.4,1.47-3.7.08-5.14-.71-.73-1.66-1.1-2.61-1.1s-1.82.34-2.53,1.02m-13.16-4.32c-1.77,1.14-2.27,3.51-1.13,5.28s3.51,2.27,5.28,1.13c1.77-1.15,2.28-3.51,1.13-5.28-.73-1.13-1.96-1.74-3.21-1.74-.71,0-1.43.2-2.07.62m-12.14-5.27c-2.09,1.33-2.7,4.11-1.36,6.19,1.34,2.09,4.11,2.7,6.2,1.37,2.08-1.34,2.69-4.11,1.36-6.2-.86-1.34-2.31-2.07-3.78-2.07-.83,0-1.66.23-2.41.71m36.15-3.47c-1.12,1.66-.68,3.91.98,5.04,1.66,1.12,3.91.68,5.04-.98,1.12-1.67.67-3.92-.99-5.04-.62-.42-1.33-.62-2.02-.62-1.17,0-2.31.56-3.01,1.6m-14.42-.8c-1.52,1.47-1.57,3.89-.1,5.4,1.47,1.51,3.89,1.56,5.4.09,1.52-1.46,1.56-3.88.09-5.4-.75-.78-1.75-1.17-2.74-1.17s-1.91.36-2.65,1.07m28.18-.38c-.73,1.07-.46,2.51.6,3.24,1.06.72,2.52.45,3.24-.61.73-1.06.46-2.51-.61-3.23-.4-.28-.86-.41-1.31-.41-.74,0-1.47.35-1.92,1.01m12.76-2.76c-.42.94.01,2.04.95,2.46.93.42,2.03,0,2.45-.94s0-2.04-.95-2.46c-.25-.11-.5-.16-.75-.16-.71,0-1.39.41-1.7,1.1m-53.68.05c-1.77,1.74-1.78,4.58-.03,6.34,1.74,1.76,4.58,1.77,6.34.03s1.78-4.58.04-6.34c-.88-.89-2.03-1.33-3.19-1.33s-2.28.43-3.15,1.3m-13.07-6.6c-2.22,1.76-2.61,5-.84,7.23,1.77,2.23,5.01,2.61,7.23.85,2.23-1.76,2.61-5,.85-7.23-1.02-1.28-2.52-1.96-4.04-1.96-1.12,0-2.24.36-3.19,1.11m20.22-1.92c-1.4,2.04-.88,4.83,1.16,6.23,2.05,1.4,4.83.88,6.24-1.17,1.41-2.04.87-4.83-1.17-6.23-.78-.53-1.66-.79-2.53-.79-1.43,0-2.83.68-3.7,1.95m13.62-.44c-1.19,1.75-.73,4.12,1.02,5.31,1.74,1.18,4.11.73,5.3-1.02,1.18-1.74.73-4.12-1.02-5.3-.66-.45-1.4-.66-2.14-.66-1.22,0-2.42.59-3.16,1.67m13.75-.81c-.78,1.84.07,3.97,1.91,4.76,1.85.78,3.97-.07,4.76-1.91.78-1.85-.07-3.98-1.92-4.76-.47-.2-.95-.29-1.43-.29-1.41,0-2.75.83-3.33,2.21m-61.68-6.55c-3.16,1.02-4.89,4.4-3.87,7.56,1.02,3.15,4.4,4.88,7.54,3.87,3.16-1.02,4.89-4.4,3.88-7.55-.82-2.55-3.18-4.16-5.71-4.16-.61,0-1.23.09-1.84.29m75.51,1.06c-.49,1.19.07,2.55,1.26,3.04,1.19.49,2.54-.08,3.03-1.27.49-1.18-.08-2.54-1.26-3.03-.29-.12-.59-.18-.89-.18-.91,0-1.78.54-2.15,1.44m-51.74-2c-1.56,2.38-.89,5.57,1.48,7.13,2.38,1.56,5.57.89,7.13-1.49s.9-5.56-1.48-7.12c-.87-.57-1.85-.84-2.82-.84-1.68,0-3.33.82-4.31,2.33m16.37-1.97c-.95,2.29.14,4.91,2.44,5.85,2.29.95,4.91-.14,5.86-2.43.94-2.29-.15-4.91-2.44-5.85-.56-.23-1.14-.34-1.71-.34-1.76,0-3.43,1.04-4.15,2.77m12.78-1.82c-.84,1.93.05,4.18,1.98,5.03,1.93.84,4.18-.05,5.02-1.98s-.04-4.19-1.98-5.02c-.5-.22-1.01-.32-1.52-.32-1.48,0-2.88.86-3.5,2.3m34.8-1.07c-.19,1.01.47,1.98,1.47,2.18,1.01.2,1.99-.46,2.19-1.47.2-1.01-.46-1.98-1.47-2.18-.12-.02-.24-.03-.36-.03-.87,0-1.65.62-1.83,1.5m-78.45-2.08c-2.46,2.22-2.65,6.02-.43,8.48,2.22,2.46,6.01,2.66,8.47.44,2.47-2.22,2.66-6.02.44-8.47-1.19-1.32-2.82-1.99-4.46-1.99-1.43,0-2.87.51-4.01,1.54m57.19-.9c-.41,1.96.84,3.88,2.81,4.29,1.96.41,3.88-.85,4.3-2.8.4-1.96-.84-3.89-2.81-4.3-.25-.05-.5-.08-.75-.08-1.68,0-3.19,1.17-3.55,2.88m-37.6-2.86c-.88,2.7.6,5.61,3.3,6.49,2.7.88,5.61-.6,6.48-3.3.88-2.71-.6-5.61-3.3-6.49-.53-.17-1.07-.25-1.6-.25-2.17,0-4.18,1.38-4.89,3.56m14.52-1.68c-.51,2.43,1.05,4.8,3.48,5.3,2.42.5,4.8-1.05,5.3-3.48s-1.05-4.8-3.48-5.3c-.31-.06-.61-.1-.91-.1-2.08,0-3.95,1.46-4.39,3.57m35.61-4.03c-.25,1.27.58,2.48,1.85,2.72,1.26.24,2.47-.59,2.72-1.84.25-1.26-.58-2.48-1.85-2.72-.15-.03-.3-.04-.45-.04-1.09,0-2.06.78-2.28,1.89m-23.42-.07c-.48,2.06.82,4.1,2.88,4.57,2.05.47,4.1-.82,4.57-2.87.47-2.05-.82-4.1-2.87-4.57-.29-.07-.58-.1-.86-.1-1.74,0-3.31,1.2-3.71,2.97m-41.23-.75c-1.41,3-.12,6.57,2.87,7.98,3,1.41,6.58.12,7.98-2.88,1.41-3,.12-6.58-2.88-7.98-.83-.39-1.69-.57-2.55-.57-2.25,0-4.41,1.27-5.43,3.45m77.09-10.46c-1.03,0-1.85.85-1.85,1.88.01,1.03.85,1.85,1.88,1.84s1.86-.85,1.84-1.88c0-1.02-.84-1.84-1.86-1.84h-.02m-42.33-.56c-2.46,0-4.46,1.99-4.48,4.45-.02,2.48,1.97,4.5,4.44,4.52,2.48.02,4.5-1.97,4.53-4.45.02-2.48-1.98-4.5-4.46-4.52h-.04m-18.1,4.67c-.06,2.84,2.18,5.2,5.03,5.26,2.84.07,5.2-2.19,5.25-5.03.07-2.84-2.19-5.2-5.03-5.26h-.12c-2.79,0-5.08,2.23-5.14,5.03m40.75-5.35c-2.01.01-3.62,1.65-3.6,3.65,0,2,1.65,3.62,3.65,3.6,2.01-.02,3.62-1.65,3.61-3.65s-1.64-3.6-3.63-3.6h-.03m-12.28-6.57c-2.09,0-3.82,1.69-3.83,3.79-.02,2.11,1.68,3.83,3.79,3.85s3.83-1.68,3.85-3.79c.01-2.11-1.68-3.83-3.79-3.85h-.02m-38.59-.02c-3.29,0-5.97,2.64-6,5.94-.03,3.31,2.62,6.03,5.94,6.06,3.31.03,6.03-2.62,6.06-5.94.03-3.31-2.62-6.03-5.94-6.06h-.06m60.02-2.81c-1.28.02-2.3,1.09-2.27,2.37.02,1.28,1.09,2.3,2.37,2.28,1.28-.03,2.3-1.09,2.28-2.37-.03-1.27-1.07-2.28-2.33-2.28h-.05m-34.39-3.18c-2.41.56-3.92,2.97-3.36,5.38.56,2.41,2.97,3.91,5.39,3.35,2.41-.56,3.9-2.97,3.34-5.38-.48-2.07-2.32-3.47-4.35-3.47-.34,0-.68.04-1.02.12m-14.73-2.97c-2.71.87-4.19,3.77-3.31,6.48.87,2.71,3.77,4.19,6.47,3.32s4.19-3.77,3.33-6.48c-.71-2.18-2.72-3.57-4.9-3.57-.53,0-1.06.08-1.59.25m37.38-1.31c-1.96.41-3.22,2.33-2.81,4.3.41,1.96,2.33,3.22,4.3,2.81,1.95-.42,3.21-2.33,2.8-4.29-.36-1.71-1.87-2.89-3.55-2.89-.25,0-.5.03-.75.08m19.58-2.48c-1.01.21-1.65,1.19-1.43,2.2.21,1,1.19,1.65,2.2,1.43,1.01-.21,1.65-1.2,1.44-2.2-.18-.87-.95-1.47-1.81-1.47-.13,0-.26.01-.39.04m-75.73-.97c-3.01,1.38-4.34,4.94-2.96,7.95,1.38,3.01,4.95,4.34,7.96,2.96s4.33-4.94,2.95-7.95c-1.01-2.21-3.18-3.5-5.46-3.5-.84,0-1.68.18-2.49.55m42.7-.96c-2.07.41-3.41,2.43-3,4.49.41,2.07,2.42,3.41,4.49,3s3.41-2.43,3-4.5c-.36-1.81-1.96-3.07-3.74-3.07-.25,0-.5.02-.75.07m-13.44-3.07c-2.27.98-3.32,3.62-2.34,5.89s3.61,3.32,5.89,2.35c2.27-.98,3.32-3.62,2.34-5.89-.73-1.7-2.38-2.71-4.12-2.71-.59,0-1.2.12-1.78.37m34.68-1.58c-1.26.25-2.07,1.48-1.81,2.74.25,1.26,1.47,2.07,2.74,1.82,1.26-.25,2.08-1.48,1.82-2.74-.22-1.11-1.19-1.87-2.27-1.87-.15,0-.31.02-.47.05m-54.84-4.03c-2.25,1.74-2.66,4.97-.91,7.22,1.74,2.25,4.97,2.66,7.22.92,2.25-1.74,2.65-4.97.91-7.22-1.01-1.31-2.53-2-4.07-2-1.1,0-2.21.35-3.15,1.08m-22.09.61c-2.14,2.53-1.83,6.31.7,8.46,2.52,2.14,6.31,1.83,8.45-.71,2.14-2.53,1.82-6.31-.7-8.45-1.13-.96-2.51-1.42-3.88-1.42-1.7,0-3.39.72-4.58,2.12m63.69-2.63c-1.86.77-2.72,2.9-1.96,4.74.76,1.85,2.89,2.73,4.75,1.96,1.84-.77,2.72-2.89,1.96-4.74-.59-1.4-1.94-2.24-3.36-2.24-.46,0-.93.09-1.39.28m-14.12-2.01c-1.95.79-2.89,3.02-2.1,4.98.8,1.95,3.02,2.89,4.98,2.09,1.96-.79,2.9-3.02,2.09-4.98-.6-1.48-2.02-2.38-3.53-2.38-.48,0-.97.09-1.44.28m-13.32-.07c-2.08,1.35-2.67,4.13-1.32,6.21,1.35,2.07,4.13,2.66,6.2,1.31,2.08-1.35,2.67-4.12,1.33-6.2-.86-1.32-2.3-2.04-3.77-2.04-.84,0-1.68.24-2.43.72m46.37-3.65c-.95.39-1.4,1.48-1.01,2.43s1.48,1.4,2.43,1.01,1.4-1.48,1.01-2.43c-.29-.72-.99-1.15-1.72-1.15-.24,0-.48.05-.71.14m-12.6-3.94c-1.19.47-1.77,1.83-1.31,3.02.48,1.19,1.83,1.78,3.03,1.3,1.19-.47,1.77-1.82,1.3-3.02-.36-.91-1.24-1.47-2.16-1.47-.29,0-.58.05-.86.16m-60.83,2.01c-1.58,2.36-.95,5.55,1.42,7.14,2.36,1.58,5.56.94,7.14-1.42s.94-5.56-1.42-7.14c-.88-.59-1.87-.87-2.85-.87-1.66,0-3.29.8-4.29,2.29m18.3-3.48c-1.74,1.76-1.74,4.6.02,6.34,1.76,1.75,4.6,1.74,6.34-.01,1.75-1.76,1.75-4.6-.01-6.34-.87-.87-2.02-1.31-3.16-1.31s-2.3.44-3.18,1.32m28.61-1.86c-1.69,1.08-2.18,3.33-1.1,5.01,1.08,1.69,3.33,2.18,5.02,1.09,1.68-1.08,2.17-3.32,1.1-5.01-.7-1.08-1.87-1.67-3.07-1.67-.67,0-1.35.18-1.95.57m-15.26-.69c-1.76,1.16-2.25,3.53-1.09,5.29,1.16,1.76,3.53,2.25,5.29,1.09,1.76-1.16,2.25-3.53,1.08-5.29-.73-1.11-1.95-1.72-3.19-1.72-.72,0-1.45.2-2.09.63m-23.1-4.41c-1.39,2.05-.85,4.84,1.21,6.22,2.05,1.39,4.84.84,6.23-1.21,1.38-2.06.84-4.84-1.22-6.22-.77-.52-1.64-.76-2.5-.76-1.44,0-2.86.69-3.72,1.98m54.96-5.38c-.86.57-1.09,1.72-.52,2.58.56.86,1.72,1.09,2.58.52.85-.56,1.08-1.72.52-2.57-.36-.54-.95-.83-1.55-.83-.35,0-.71.1-1.03.31m-42.77-.02c-1.5,1.49-1.51,3.9-.03,5.4s3.89,1.51,5.4.03c1.5-1.48,1.51-3.9.03-5.4-.75-.76-1.73-1.13-2.72-1.13s-1.94.37-2.68,1.1m28.83-2.38c-1.07.71-1.36,2.15-.65,3.22.71,1.07,2.15,1.37,3.22.66,1.07-.71,1.36-2.15.66-3.22-.45-.68-1.19-1.04-1.94-1.04-.44,0-.89.12-1.28.39m-14.58-.65c-1.43,1.41-1.43,3.71-.03,5.13,1.42,1.43,3.71,1.43,5.14.02,1.42-1.41,1.43-3.71.02-5.13-.71-.72-1.64-1.07-2.58-1.07s-1.85.35-2.56,1.05m-13.6-10.22c-1.11,1.66-.67,3.92.99,5.03,1.66,1.12,3.91.68,5.04-.99,1.11-1.67.67-3.92-.99-5.03-.62-.42-1.33-.62-2.02-.62-1.17,0-2.32.56-3.02,1.61m29.43-1.78c-.73.72-.75,1.89-.03,2.63s1.9.75,2.63.03c.74-.72.75-1.89.04-2.63-.36-.37-.85-.56-1.33-.56s-.94.18-1.3.53m-14.29.11c-.92.89-.94,2.37-.04,3.28.9.92,2.37.94,3.29.04.91-.9.93-2.37.04-3.29-.45-.47-1.05-.7-1.66-.7s-1.17.22-1.63.67m-1.33-12.78c-.59.84-.38,2,.47,2.59.85.58,2,.38,2.59-.47.59-.84.38-2-.47-2.59-.32-.22-.69-.33-1.06-.33-.59,0-1.17.28-1.53.8"/>
    </clipPath>
    <linearGradient id="Dégradé_sans_nom" data-name="Dégradé sans nom" x1="-470.35" y1="-258.08" x2="-469.35" y2="-258.08" gradientTransform="translate(46263.88 25188.16) scale(97.18)" gradientUnits="userSpaceOnUse">
      <stop offset="0" stop-color="#ea5b0c"/>
      <stop offset="1" stop-color="#fff"/>
    </linearGradient>
    <clipPath id="clippath-2">
      <rect class="cls-1" width="697.64" height="289.31"/>
    </clipPath>
    <clipPath id="clippath-3">
      <rect class="cls-1" width="697.64" height="289.31"/>
    </clipPath>
    <clipPath id="clippath-4">
      <rect class="cls-1" width="697.64" height="289.31"/>
    </clipPath>
    <clipPath id="clippath-5">
      <rect class="cls-1" width="697.64" height="289.31"/>
    </clipPath>
    <clipPath id="clippath-6">
      <rect class="cls-1" width="697.64" height="289.31"/>
    </clipPath>
    <clipPath id="clippath-7">
      <rect class="cls-1" width="697.64" height="289.31"/>
    </clipPath>
    <clipPath id="clippath-8">
      <rect class="cls-1" width="697.64" height="289.31"/>
    </clipPath>
  </defs>
  <g id="Calque_2-2" data-name="Calque 2">
    <g id="Layer_1" data-name="Layer 1">
      <rect class="cls-5" y="29.1" width="340.62" height="227.59"/>
      <polygon class="cls-4" points="236.44 168.18 239.28 176.92 248.47 176.92 241.03 182.32 243.88 191.06 236.44 185.66 229.01 191.06 231.85 182.32 224.42 176.92 233.6 176.92 236.44 168.18"/>
      <polygon class="cls-4" points="104.95 168.18 107.78 176.92 116.97 176.92 109.54 182.32 112.38 191.06 104.95 185.66 97.51 191.06 100.35 182.32 92.92 176.92 102.11 176.92 104.95 168.18"/>
      <polygon class="cls-4" points="104.95 92.31 107.78 101.05 116.97 101.05 109.54 106.46 112.38 115.19 104.95 109.79 97.51 115.19 100.35 106.46 92.92 101.05 102.11 101.05 104.95 92.31"/>
      <polygon class="cls-4" points="236.44 92.31 239.28 101.05 248.47 101.05 241.03 106.46 243.88 115.19 236.44 109.79 229.01 115.19 231.85 106.46 224.42 101.05 233.6 101.05 236.44 92.31"/>
      <polygon class="cls-4" points="132.76 196 135.6 204.73 144.79 204.73 137.36 210.13 140.19 218.87 132.76 213.47 125.33 218.87 128.17 210.13 120.74 204.73 129.92 204.73 132.76 196"/>
      <polygon class="cls-4" points="208.63 196 211.46 204.73 220.65 204.73 213.22 210.13 216.06 218.87 208.63 213.47 201.2 218.87 204.03 210.13 196.6 204.73 205.79 204.73 208.63 196"/>
      <polygon class="cls-4" points="132.76 64.5 135.6 73.24 144.79 73.24 137.36 78.64 140.19 87.37 132.76 81.97 125.33 87.37 128.17 78.64 120.74 73.24 129.92 73.24 132.76 64.5"/>
      <polygon class="cls-4" points="208.63 64.5 211.46 73.24 220.65 73.24 213.22 78.64 216.06 87.37 208.63 81.97 201.2 87.37 204.03 78.64 196.6 73.24 205.79 73.24 208.63 64.5"/>
      <polygon class="cls-4" points="246.56 130.25 249.4 138.99 258.58 138.99 251.15 144.39 253.99 153.12 246.56 147.72 239.13 153.12 241.96 144.39 234.53 138.99 243.72 138.99 246.56 130.25"/>
      <polygon class="cls-4" points="94.83 130.25 97.67 138.99 106.85 138.99 99.42 144.39 102.26 153.12 94.83 147.72 87.4 153.12 90.24 144.39 82.8 138.99 91.99 138.99 94.83 130.25"/>
      <polygon class="cls-4" points="170.69 206.11 173.53 214.85 182.72 214.85 175.29 220.25 178.12 228.99 170.69 223.59 163.26 228.99 166.1 220.25 158.67 214.85 167.86 214.85 170.69 206.11"/>
      <polygon class="cls-4" points="170.69 54.38 173.53 63.12 182.72 63.12 175.29 68.52 178.12 77.26 170.69 71.86 163.26 77.26 166.1 68.52 158.67 63.12 167.86 63.12 170.69 54.38"/>
      <g class="cls-6">
        <rect class="cls-14" x="558.91" y="18.61" width="98.21" height="178.56"/>
      </g>
      <g class="cls-9">
        <g>
          <path class="cls-2" d="m560.1,73.83c-.89,3.19-4.21,5.06-7.39,4.16-3.19-.89-5.05-4.2-4.16-7.39.88-3.19,4.2-5.05,7.39-4.16s5.05,4.2,4.16,7.39"/>
          <path class="cls-2" d="m546.18,141.28c.3-3.3,3.22-5.73,6.51-5.44,3.31.3,5.74,3.22,5.44,6.52s-3.21,5.73-6.52,5.43c-3.3-.29-5.73-3.22-5.44-6.51"/>
          <path class="cls-2" d="m533.24,137.14c1.54-2.93,5.18-4.05,8.11-2.51,2.93,1.55,4.05,5.18,2.5,8.11-1.54,2.93-5.18,4.05-8.11,2.51-2.93-1.55-4.05-5.18-2.5-8.1"/>
          <path class="cls-2" d="m522.53,127.86c2.59-2.06,6.36-1.64,8.43.95,2.06,2.59,1.64,6.36-.95,8.43-2.59,2.07-6.37,1.63-8.43-.96-2.07-2.59-1.64-6.37.96-8.43"/>
          <path class="cls-2" d="m516.46,115.14c3.2-.86,6.49,1.04,7.35,4.23.85,3.2-1.04,6.49-4.25,7.35-3.19.86-6.48-1.04-7.35-4.24-.86-3.2,1.05-6.49,4.25-7.34"/>
          <path class="cls-2" d="m515.87,101.63c3.29.43,5.6,3.45,5.16,6.73-.43,3.28-3.45,5.6-6.73,5.16-3.28-.43-5.6-3.45-5.16-6.73.43-3.28,3.45-5.59,6.73-5.16"/>
          <path class="cls-2" d="m520.79,88.48c2.85,1.7,3.77,5.39,2.06,8.23-1.71,2.84-5.39,3.76-8.23,2.05-2.85-1.7-3.76-5.39-2.07-8.23,1.71-2.84,5.39-3.76,8.23-2.06"/>
          <path class="cls-2" d="m530.52,78.37c1.93,2.69,1.31,6.44-1.38,8.37-2.7,1.93-6.44,1.32-8.37-1.38-1.93-2.69-1.32-6.44,1.38-8.37,2.69-1.93,6.44-1.31,8.37,1.38"/>
          <path class="cls-2" d="m545.05,72.69c.55,3.27-1.65,6.37-4.92,6.92-3.27.55-6.36-1.65-6.91-4.92s1.65-6.36,4.92-6.91c3.26-.55,6.36,1.65,6.91,4.91"/>
          <path class="cls-2" d="m555.28,157.13c0,2.84-2.3,5.15-5.15,5.15s-5.14-2.31-5.14-5.15,2.3-5.14,5.14-5.14,5.15,2.31,5.15,5.14"/>
          <path class="cls-2" d="m570.82,152.88c.9,2.7-.56,5.61-3.25,6.51-2.7.9-5.61-.56-6.51-3.26-.9-2.69.55-5.61,3.25-6.51s5.61.55,6.51,3.25"/>
          <path class="cls-2" d="m544.68,57.35c.09-2.84,2.46-5.07,5.3-4.98,2.85.09,5.08,2.47,4.99,5.31-.1,2.84-2.48,5.07-5.31,4.98-2.84-.09-5.07-2.47-4.98-5.3"/>
          <path class="cls-2" d="m559.91,57.78c.9-2.69,3.82-4.14,6.52-3.24,2.7.91,4.15,3.83,3.24,6.52-.9,2.69-3.82,4.14-6.52,3.24-2.7-.91-4.14-3.82-3.24-6.52"/>
          <path class="cls-2" d="m529.49,61.63c-.84-2.71.68-5.6,3.4-6.44,2.72-.84,5.59.68,6.44,3.4.84,2.71-.68,5.6-3.4,6.44-2.72.84-5.6-.68-6.44-3.4"/>
          <path class="cls-2" d="m515.6,71.12c-1.72-2.27-1.26-5.5,1.01-7.21s5.49-1.26,7.21,1c1.71,2.27,1.26,5.5-1.01,7.21s-5.49,1.27-7.2-1"/>
          <path class="cls-2" d="m501.03,97.32c-2.68-.94-4.1-3.87-3.16-6.56.94-2.69,3.88-4.1,6.56-3.16,2.68.94,4.1,3.88,3.16,6.56s-3.87,4.1-6.55,3.16"/>
          <path class="cls-2" d="m506,82.86c-2.34-1.6-2.94-4.81-1.33-7.16,1.61-2.34,4.82-2.94,7.16-1.33,2.35,1.61,2.94,4.82,1.33,7.16-1.61,2.34-4.81,2.94-7.16,1.33"/>
          <path class="cls-2" d="m500.15,112.79c-2.84-.11-5.06-2.49-4.96-5.33.11-2.84,2.49-5.06,5.33-4.96s5.06,2.49,4.96,5.33c-.1,2.84-2.49,5.06-5.34,4.96"/>
          <path class="cls-2" d="m504.22,128.08c-2.73.8-5.59-.76-6.39-3.49-.8-2.73.76-5.59,3.48-6.39,2.72-.8,5.59.76,6.39,3.49.8,2.73-.75,5.58-3.48,6.39"/>
          <path class="cls-2" d="m513.13,141.33c-2.3,1.68-5.52,1.18-7.2-1.11-1.67-2.29-1.18-5.52,1.11-7.2,2.29-1.68,5.51-1.19,7.2,1.11,1.68,2.29,1.19,5.51-1.11,7.2"/>
          <path class="cls-2" d="m538.11,156.26c-.98,2.67-3.94,4.05-6.61,3.07-2.66-.98-4.04-3.93-3.06-6.6.98-2.67,3.93-4.04,6.61-3.06,2.67.98,4.04,3.93,3.06,6.6"/>
          <path class="cls-2" d="m525.11,150.97c-1.65,2.32-4.86,2.87-7.18,1.23-2.31-1.65-2.87-4.86-1.23-7.18,1.64-2.32,4.85-2.87,7.18-1.22,2.31,1.64,2.86,4.85,1.23,7.17"/>
          <path class="cls-2" d="m554.62,44.21c0,2.48-2,4.49-4.49,4.49s-4.48-2.01-4.48-4.49,2.01-4.48,4.48-4.48,4.49,2.01,4.49,4.48"/>
          <path class="cls-2" d="m566.85,46.34c-.49,2.43-2.85,4-5.27,3.52-2.43-.48-4.01-2.85-3.52-5.27.48-2.43,2.85-4.01,5.28-3.52,2.42.49,4,2.85,3.51,5.28"/>
          <path class="cls-2" d="m577.85,50.53c-.93,2.3-3.54,3.41-5.84,2.48-2.3-.93-3.4-3.54-2.48-5.84.93-2.3,3.54-3.4,5.83-2.48,2.3.93,3.41,3.54,2.48,5.84"/>
          <path class="cls-2" d="m487,102.97c2.48-.02,4.49,1.97,4.52,4.45.01,2.47-1.98,4.5-4.45,4.52-2.48.02-4.5-1.98-4.52-4.45-.02-2.48,1.97-4.5,4.45-4.52"/>
          <path class="cls-2" d="m489.03,90.72c2.43.47,4.02,2.82,3.56,5.25-.47,2.43-2.82,4.02-5.25,3.55-2.44-.47-4.02-2.81-3.56-5.25.46-2.43,2.81-4.03,5.25-3.56"/>
          <path class="cls-2" d="m493.15,79.68c2.3.91,3.42,3.52,2.52,5.82-.91,2.3-3.52,3.43-5.82,2.52-2.3-.91-3.43-3.51-2.52-5.82.91-2.3,3.51-3.43,5.82-2.52"/>
          <path class="cls-2" d="m500.07,68.5c2.06,1.37,2.62,4.15,1.26,6.21-1.37,2.07-4.15,2.63-6.22,1.26-2.06-1.36-2.63-4.15-1.26-6.21,1.37-2.07,4.14-2.63,6.22-1.26"/>
          <path class="cls-2" d="m508.29,59.76c1.76,1.74,1.79,4.58.06,6.34-1.74,1.77-4.57,1.79-6.34.06-1.77-1.74-1.8-4.57-.06-6.34,1.73-1.77,4.57-1.8,6.34-.06"/>
          <path class="cls-2" d="m518.49,52.4c1.36,2.07.8,4.85-1.27,6.21s-4.85.79-6.21-1.27c-1.36-2.07-.8-4.85,1.27-6.21,2.06-1.36,4.84-.8,6.21,1.27"/>
          <path class="cls-2" d="m528.89,47.66c1,2.27-.04,4.91-2.3,5.91s-4.91-.03-5.91-2.3.03-4.91,2.29-5.91c2.27-1,4.91.03,5.92,2.3"/>
          <path class="cls-2" d="m541.12,44.85c.58,2.41-.91,4.83-3.31,5.41-2.41.58-4.83-.9-5.4-3.31-.58-2.41.9-4.83,3.31-5.4,2.42-.58,4.83.9,5.41,3.31"/>
          <path class="cls-2" d="m545.76,170.12c-.02-2.48,1.97-4.5,4.46-4.51,2.47-.02,4.49,1.97,4.51,4.45.01,2.48-1.98,4.5-4.45,4.51-2.47.02-4.5-1.98-4.52-4.45"/>
          <path class="cls-2" d="m533.51,168.07c.47-2.43,2.83-4.02,5.26-3.55s4.03,2.82,3.55,5.25c-.47,2.43-2.82,4.02-5.25,3.56-2.43-.47-4.02-2.82-3.56-5.25"/>
          <path class="cls-2" d="m522.48,163.96c.91-2.3,3.52-3.43,5.82-2.52,2.3.91,3.43,3.52,2.52,5.82s-3.52,3.43-5.82,2.51c-2.3-.91-3.43-3.51-2.52-5.82"/>
          <path class="cls-2" d="m511.29,157.03c1.38-2.07,4.15-2.63,6.22-1.26,2.07,1.37,2.62,4.15,1.26,6.21-1.36,2.07-4.15,2.63-6.21,1.26-2.07-1.37-2.62-4.15-1.26-6.21"/>
          <path class="cls-2" d="m502.56,148.81c1.73-1.77,4.57-1.79,6.33-.06,1.77,1.73,1.79,4.57.06,6.34-1.73,1.76-4.57,1.8-6.34.06s-1.8-4.57-.06-6.34"/>
          <path class="cls-2" d="m495.21,138.6c2.06-1.37,4.85-.8,6.21,1.27s.79,4.85-1.27,6.21c-2.07,1.36-4.85.8-6.21-1.28-1.37-2.06-.8-4.84,1.27-6.21"/>
          <path class="cls-2" d="m490.47,128.2c2.27-.99,4.92.04,5.9,2.3,1,2.27-.03,4.91-2.3,5.91-2.26,1-4.9-.03-5.9-2.3s.03-4.91,2.29-5.91"/>
          <path class="cls-2" d="m487.67,115.96c2.41-.58,4.83.91,5.4,3.31.58,2.41-.91,4.83-3.32,5.41-2.41.58-4.82-.9-5.4-3.32-.58-2.41.9-4.82,3.31-5.4"/>
          <path class="cls-2" d="m570.15,166.94c-.96-2.28.11-4.91,2.39-5.88,2.28-.96,4.9.11,5.87,2.39s-.11,4.91-2.38,5.88c-2.28.96-4.91-.11-5.88-2.39"/>
          <path class="cls-2" d="m557.88,169.57c-.55-2.42.97-4.81,3.39-5.35,2.41-.54,4.81.98,5.35,3.4.55,2.42-.97,4.81-3.39,5.35-2.41.54-4.81-.98-5.35-3.4"/>
          <path class="cls-2" d="m545.65,33.58c0,2.11-1.71,3.82-3.82,3.82s-3.82-1.71-3.82-3.82,1.7-3.82,3.82-3.82,3.82,1.71,3.82,3.82"/>
          <path class="cls-2" d="m562.73,34.64c-.48,2.05-2.54,3.33-4.59,2.83-2.06-.48-3.33-2.54-2.84-4.59s2.55-3.32,4.61-2.84c2.05.49,3.32,2.55,2.83,4.6"/>
          <path class="cls-2" d="m576,38.35c-.85,1.92-3.11,2.79-5.04,1.93s-2.79-3.12-1.93-5.05c.86-1.92,3.12-2.79,5.05-1.93,1.92.86,2.79,3.12,1.92,5.04"/>
          <path class="cls-2" d="m587.78,44.11c-1.19,1.75-3.56,2.19-5.31,1.01-1.74-1.19-2.19-3.56-1-5.31,1.18-1.74,3.56-2.2,5.3-1.01,1.75,1.19,2.19,3.57,1,5.31"/>
          <path class="cls-2" d="m581.07,173.78c-.8-1.96.14-4.19,2.09-4.98,1.95-.8,4.19.15,4.98,2.1.8,1.96-.14,4.18-2.1,4.98-1.96.79-4.18-.15-4.98-2.1"/>
          <path class="cls-2" d="m567.74,178.56c-.41-2.07.94-4.08,3.01-4.49s4.08.94,4.48,3.01c.41,2.07-.94,4.08-3.01,4.48-2.08.41-4.08-.94-4.48-3.01"/>
          <path class="cls-2" d="m554.05,180.69c0-2.11,1.7-3.83,3.8-3.84,2.12,0,3.83,1.69,3.84,3.8.02,2.11-1.69,3.83-3.8,3.84s-3.82-1.69-3.84-3.8"/>
          <path class="cls-2" d="m537.67,179.85c.47-2.06,2.5-3.37,4.56-2.91,2.06.45,3.35,2.49,2.9,4.55-.45,2.06-2.49,3.36-4.55,2.9-2.05-.45-3.36-2.49-2.9-4.55"/>
          <path class="cls-2" d="m525.66,176.81c.8-1.96,3.02-2.9,4.98-2.1,1.95.79,2.9,3.02,2.1,4.98-.79,1.95-3.03,2.9-4.98,2.1-1.95-.8-2.89-3.02-2.1-4.98"/>
          <path class="cls-2" d="m509.93,169.2c1.23-1.71,3.62-2.1,5.33-.87,1.72,1.23,2.11,3.62.88,5.33-1.23,1.72-3.62,2.1-5.33.88-1.71-1.23-2.1-3.62-.87-5.33"/>
          <path class="cls-2" d="m499.82,161.43c1.51-1.47,3.93-1.45,5.41.06,1.47,1.51,1.44,3.93-.07,5.4-1.51,1.48-3.93,1.45-5.4-.06-1.48-1.51-1.45-3.93.06-5.4"/>
          <path class="cls-2" d="m490.27,150.78c1.76-1.15,4.14-.66,5.29,1.11,1.16,1.76.67,4.13-1.1,5.28-1.77,1.16-4.13.66-5.29-1.1-1.16-1.77-.67-4.13,1.1-5.29"/>
          <path class="cls-2" d="m483.48,139.57c1.94-.82,4.19.08,5.01,2.02.83,1.94-.08,4.18-2.02,5.01-1.94.82-4.18-.09-5.01-2.02-.82-1.94.09-4.18,2.02-5.01"/>
          <path class="cls-2" d="m478.93,127.85c2.05-.48,4.11.79,4.59,2.85.49,2.06-.79,4.11-2.85,4.59-2.05.48-4.11-.79-4.59-2.84s.79-4.11,2.85-4.59"/>
          <path class="cls-2" d="m476.12,112.08c2.12-.03,3.85,1.66,3.88,3.77.02,2.11-1.66,3.84-3.77,3.87-2.11.03-3.84-1.66-3.88-3.77-.01-2.11,1.67-3.84,3.77-3.87"/>
          <path class="cls-2" d="m476.71,96.68c2.07.42,3.42,2.43,3,4.49-.41,2.07-2.43,3.41-4.5,3s-3.41-2.43-3-4.49c.41-2.07,2.42-3.41,4.49-3"/>
          <path class="cls-2" d="m480.24,82.4c1.94.82,2.86,3.06,2.04,5-.82,1.95-3.05,2.86-5,2.04s-2.86-3.05-2.05-5c.82-1.94,3.05-2.86,5-2.04"/>
          <path class="cls-2" d="m486.64,68.94c1.74,1.19,2.19,3.57,1,5.31s-3.57,2.19-5.31,1-2.19-3.57-1-5.31,3.57-2.18,5.31-1"/>
          <path class="cls-2" d="m495.91,56.72c1.47,1.53,1.41,3.95-.11,5.4-1.52,1.46-3.94,1.4-5.4-.12-1.46-1.53-1.4-3.95.12-5.41,1.52-1.45,3.94-1.4,5.39.12"/>
          <path class="cls-2" d="m506.05,47.75c1.15,1.77.66,4.14-1.11,5.29-1.75,1.15-4.13.66-5.29-1.1-1.15-1.77-.65-4.14,1.11-5.29,1.77-1.15,4.13-.65,5.29,1.11"/>
          <path class="cls-2" d="m517.58,40.81c.81,1.95-.1,4.19-2.06,5-1.94.82-4.18-.1-4.99-2.05-.82-1.95.1-4.18,2.05-5,1.95-.81,4.18.1,5,2.05"/>
          <path class="cls-2" d="m531.23,35.81c.42,2.07-.92,4.09-3,4.5-2.06.42-4.08-.92-4.49-2.99-.41-2.07.93-4.08,3-4.5,2.07-.41,4.08.93,4.5,2.99"/>
          <path class="cls-2" d="m536.36,22.56c.39,1.97-.88,3.88-2.85,4.28-1.96.39-3.87-.88-4.27-2.84-.39-1.97.88-3.88,2.85-4.28,1.96-.39,3.88.88,4.27,2.84"/>
          <path class="cls-2" d="m553.85,21.56c-.02,2.01-1.65,3.62-3.65,3.61-2.01-.01-3.62-1.65-3.61-3.65.01-2.01,1.65-3.62,3.65-3.61,2.01.02,3.62,1.65,3.61,3.65"/>
          <path class="cls-2" d="m573.71,24.83c-.48,1.95-2.46,3.14-4.39,2.66-1.94-.48-3.14-2.45-2.65-4.39.48-1.95,2.45-3.13,4.39-2.66,1.94.48,3.13,2.45,2.65,4.39"/>
          <path class="cls-2" d="m587.26,30.01c-.81,1.84-2.95,2.68-4.78,1.88-1.84-.8-2.68-2.94-1.88-4.78s2.94-2.68,4.78-1.88c1.84.8,2.67,2.94,1.88,4.78"/>
          <path class="cls-2" d="m578.72,187.85c-.75-1.86.16-3.98,2.01-4.72,1.87-.74,3.98.16,4.72,2.02s-.16,3.97-2.02,4.72c-1.86.74-3.97-.16-4.72-2.02"/>
          <path class="cls-2" d="m563.13,191.81c-.38-1.97.9-3.88,2.87-4.26,1.97-.38,3.87.9,4.26,2.86.38,1.97-.9,3.88-2.87,4.26-1.96.38-3.87-.9-4.26-2.86"/>
          <path class="cls-2" d="m544.86,192.67c.04-2.01,1.7-3.6,3.7-3.56,2.01.04,3.59,1.7,3.55,3.71-.04,2-1.7,3.59-3.7,3.55-2-.05-3.59-1.7-3.55-3.7"/>
          <path class="cls-2" d="m528.51,190.09c.43-1.96,2.36-3.2,4.32-2.78,1.96.43,3.2,2.36,2.78,4.31-.43,1.97-2.36,3.2-4.32,2.78-1.96-.43-3.2-2.36-2.78-4.32"/>
          <path class="cls-2" d="m512.39,184.14c.82-1.84,2.95-2.67,4.79-1.86,1.83.81,2.66,2.95,1.86,4.78-.82,1.84-2.95,2.67-4.79,1.86-1.83-.81-2.67-2.95-1.86-4.78"/>
          <path class="cls-2" d="m496.05,173.72c1.2-1.61,3.47-1.94,5.08-.74s1.93,3.47.72,5.08c-1.19,1.61-3.46,1.94-5.08.74-1.6-1.2-1.93-3.47-.73-5.08"/>
          <path class="cls-2" d="m486.23,164.41c1.45-1.4,3.74-1.36,5.14.07,1.39,1.43,1.36,3.74-.07,5.13-1.44,1.39-3.73,1.36-5.13-.08-1.4-1.43-1.37-3.73.07-5.12"/>
          <path class="cls-2" d="m476.52,151.25c1.68-1.1,3.93-.63,5.03,1.04,1.1,1.68.63,3.93-1.05,5.03-1.67,1.1-3.92.63-5.02-1.05-1.09-1.68-.62-3.92,1.05-5.02"/>
          <path class="cls-2" d="m470.27,138.61c1.84-.81,3.98.02,4.79,1.86.81,1.83-.02,3.98-1.86,4.78s-3.97-.02-4.79-1.86c-.8-1.84.03-3.98,1.86-4.78"/>
          <path class="cls-2" d="m465.63,122.22c1.97-.42,3.9.81,4.33,2.77.42,1.96-.82,3.89-2.77,4.32-1.96.43-3.89-.81-4.33-2.77-.42-1.96.81-3.89,2.77-4.32"/>
          <path class="cls-2" d="m464.33,104.45c2.01,0,3.64,1.6,3.66,3.6s-1.6,3.64-3.6,3.66c-2.01.01-3.64-1.6-3.66-3.6-.01-2,1.6-3.64,3.59-3.65"/>
          <path class="cls-2" d="m466.67,87.12c1.97.4,3.24,2.3,2.85,4.27-.4,1.96-2.31,3.24-4.27,2.85-1.97-.39-3.24-2.3-2.85-4.27.4-1.96,2.31-3.23,4.27-2.84"/>
          <path class="cls-2" d="m472.06,71.5c1.86.77,2.74,2.88,1.98,4.73-.76,1.85-2.89,2.74-4.74,1.98-1.86-.77-2.74-2.88-1.98-4.74.77-1.85,2.89-2.74,4.74-1.97"/>
          <path class="cls-2" d="m480.47,57.04c1.66,1.12,2.13,3.36,1.02,5.03-1.11,1.67-3.36,2.13-5.03,1.01-1.68-1.11-2.13-3.36-1.02-5.03,1.11-1.67,3.36-2.12,5.03-1.02"/>
          <path class="cls-2" d="m493.2,42.98c1.39,1.46,1.34,3.75-.11,5.13-1.45,1.39-3.75,1.34-5.13-.11-1.39-1.45-1.34-3.74.12-5.13,1.45-1.38,3.74-1.33,5.12.11"/>
          <path class="cls-2" d="m505.42,33.96c1.1,1.68.65,3.92-1.01,5.03-1.68,1.11-3.93.65-5.04-1.02-1.11-1.67-.65-3.92,1.02-5.03,1.68-1.1,3.92-.65,5.03,1.02"/>
          <path class="cls-2" d="m520.25,26.79c.77,1.86-.11,3.98-1.96,4.75-1.85.77-3.98-.11-4.74-1.96-.77-1.86.1-3.97,1.97-4.75,1.85-.76,3.97.12,4.74,1.96"/>
          <path class="cls-2" d="m542.66,12.15c0,1.29-1.04,2.33-2.33,2.33s-2.33-1.04-2.33-2.33,1.04-2.32,2.33-2.32,2.33,1.04,2.33,2.32"/>
          <path class="cls-2" d="m551.49,1.86c0,1.03-.83,1.86-1.86,1.86s-1.86-.83-1.86-1.86.84-1.86,1.87-1.86,1.86.83,1.86,1.86"/>
          <path class="cls-2" d="m576.35,5.21c-.25,1-1.24,1.61-2.25,1.37-1-.24-1.61-1.25-1.36-2.25.24-1,1.25-1.61,2.25-1.37.99.24,1.61,1.25,1.37,2.25"/>
          <path class="cls-2" d="m595.46,12.18c-.43.93-1.54,1.34-2.47.91s-1.34-1.53-.91-2.47c.43-.93,1.53-1.34,2.46-.91s1.35,1.54.92,2.47"/>
          <path class="cls-2" d="m586.8,205.79c-.38-.96.1-2.04,1.05-2.41.96-.37,2.04.1,2.41,1.06.38.96-.1,2.04-1.05,2.41-.95.38-2.03-.1-2.4-1.05"/>
          <path class="cls-2" d="m567.57,210.96c-.19-1.01.48-1.98,1.48-2.17,1.01-.19,1.98.48,2.17,1.49.19,1.01-.48,1.98-1.49,2.17s-1.98-.49-2.16-1.5"/>
          <path class="cls-2" d="m545.7,212.36c.02-1.03.88-1.84,1.9-1.82,1.03.03,1.84.89,1.81,1.91-.02,1.02-.87,1.84-1.9,1.81s-1.84-.89-1.81-1.91"/>
          <path class="cls-2" d="m523.7,209.11c.25-1,1.25-1.62,2.25-1.37,1,.24,1.61,1.25,1.37,2.24-.24,1-1.24,1.62-2.24,1.38-1-.25-1.61-1.26-1.37-2.25"/>
          <path class="cls-2" d="m504.24,202c.43-.93,1.54-1.34,2.46-.9.93.44,1.34,1.54.91,2.47-.43.94-1.53,1.34-2.47.91-.93-.43-1.34-1.54-.9-2.47"/>
          <path class="cls-2" d="m485.47,190.38c.62-.82,1.78-.99,2.6-.37.82.62.98,1.78.36,2.61-.61.82-1.78.99-2.6.37-.82-.62-.99-1.79-.37-2.6"/>
          <path class="cls-2" d="m471.79,177.68c.75-.7,1.93-.65,2.63.1.7.76.66,1.93-.1,2.62-.76.71-1.93.67-2.63-.09-.71-.75-.66-1.93.1-2.63"/>
          <path class="cls-2" d="m460.82,163.17c.86-.56,2.02-.31,2.57.55.56.86.32,2.01-.54,2.57-.87.56-2.01.32-2.57-.54-.56-.87-.32-2.02.55-2.58"/>
          <path class="cls-2" d="m453.21,148.69c.94-.42,2.05,0,2.46.94.42.94,0,2.04-.94,2.46-.94.42-2.04,0-2.46-.94-.41-.94,0-2.04.94-2.46"/>
          <path class="cls-2" d="m447.15,129.87c1-.24,2,.38,2.24,1.38.23,1-.38,2-1.39,2.24-1,.24-2-.38-2.24-1.38s.38-2,1.38-2.24"/>
          <path class="cls-2" d="m444.67,106.65c1.03-.01,1.87.81,1.88,1.84,0,1.03-.82,1.87-1.84,1.88-1.03,0-1.87-.81-1.88-1.84s.82-1.87,1.84-1.88"/>
          <path class="cls-2" d="m446.61,87.05c1.01.18,1.69,1.15,1.5,2.15-.18,1.01-1.15,1.69-2.15,1.5-1.02-.18-1.69-1.14-1.51-2.16.18-1.01,1.14-1.68,2.15-1.5"/>
          <path class="cls-2" d="m453.03,66.03c.96.38,1.41,1.47,1.02,2.42s-1.47,1.41-2.42,1.02c-.96-.38-1.41-1.47-1.02-2.42s1.47-1.41,2.42-1.02"/>
          <path class="cls-2" d="m463.48,47.09c.85.57,1.08,1.73.5,2.58s-1.73,1.08-2.58.5c-.86-.57-1.09-1.73-.51-2.58.57-.85,1.73-1.08,2.58-.5"/>
          <path class="cls-2" d="m477.59,30.66c.72.74.71,1.91-.03,2.63s-1.92.7-2.62-.04c-.72-.73-.71-1.91.03-2.63.74-.72,1.91-.7,2.62.04"/>
          <path class="cls-2" d="m493.83,18.06c.56.86.32,2.01-.54,2.57-.86.56-2.02.32-2.57-.55-.57-.86-.32-2.01.54-2.57.86-.56,2.01-.31,2.57.55"/>
          <path class="cls-2" d="m512.92,8.58c.38.96-.09,2.04-1.05,2.41-.96.38-2.04-.1-2.4-1.05-.38-.96.09-2.03,1.05-2.41.96-.37,2.03.1,2.41,1.06"/>
          <path class="cls-2" d="m530.53,3.66c.21,1.01-.44,1.99-1.45,2.19-1.01.2-1.99-.45-2.19-1.45-.21-1.01.45-1.99,1.46-2.19,1-.2,1.98.45,2.19,1.45"/>
          <path class="cls-2" d="m564.08,12.93c-.29,1.25-1.54,2.03-2.79,1.74-1.24-.29-2.03-1.53-1.74-2.78.28-1.25,1.53-2.03,2.79-1.75,1.25.29,2.03,1.53,1.75,2.79"/>
          <path class="cls-2" d="m583.23,17.87c-.54,1.16-1.92,1.67-3.08,1.13-1.17-.54-1.67-1.92-1.13-3.08.54-1.17,1.92-1.68,3.09-1.14,1.17.54,1.66,1.92,1.13,3.09"/>
          <path class="cls-2" d="m598.11,24.94c-.73,1.06-2.18,1.31-3.24.59-1.05-.74-1.32-2.18-.59-3.24.74-1.06,2.19-1.32,3.24-.58,1.06.73,1.33,2.18.59,3.23"/>
          <path class="cls-2" d="m592.81,192.24c-.49-1.18.07-2.54,1.27-3.03,1.18-.49,2.54.08,3.02,1.27.48,1.19-.07,2.54-1.26,3.03-1.19.48-2.55-.08-3.03-1.27"/>
          <path class="cls-2" d="m575.6,198.9c-.26-1.26.56-2.48,1.83-2.73,1.26-.25,2.48.57,2.73,1.83.26,1.26-.57,2.49-1.82,2.73-1.26.25-2.49-.57-2.73-1.83"/>
          <path class="cls-2" d="m555.86,202.23c.02-1.28,1.07-2.31,2.36-2.29,1.28.02,2.31,1.08,2.28,2.36-.01,1.29-1.07,2.31-2.35,2.29-1.28-.02-2.3-1.07-2.29-2.36"/>
          <path class="cls-2" d="m535.06,201.24c.3-1.25,1.55-2.02,2.8-1.72,1.24.3,2.02,1.55,1.72,2.8-.29,1.25-1.54,2.02-2.8,1.72-1.24-.3-2.01-1.55-1.72-2.8"/>
          <path class="cls-2" d="m518.38,197.03c.52-1.17,1.89-1.71,3.08-1.19,1.17.52,1.7,1.9,1.18,3.07-.51,1.17-1.88,1.71-3.06,1.19-1.17-.51-1.71-1.89-1.2-3.06"/>
          <path class="cls-2" d="m499.59,188.01c.76-1.03,2.22-1.26,3.25-.5,1.04.76,1.25,2.22.49,3.25-.75,1.04-2.21,1.26-3.24.5-1.04-.76-1.26-2.22-.5-3.25"/>
          <path class="cls-2" d="m485.1,176.92c.95-.87,2.42-.81,3.29.14.87.94.81,2.42-.14,3.28-.94.87-2.41.81-3.28-.13s-.81-2.41.13-3.29"/>
          <path class="cls-2" d="m474.02,164.66c1.08-.69,2.51-.38,3.21.7.69,1.08.38,2.52-.71,3.21-1.07.7-2.51.39-3.21-.69-.7-1.08-.38-2.52.7-3.22"/>
          <path class="cls-2" d="m465.42,151.06c1.19-.5,2.55.05,3.05,1.23.51,1.18-.04,2.55-1.23,3.04-1.18.5-2.54-.04-3.05-1.22-.5-1.18.05-2.55,1.23-3.05"/>
          <path class="cls-2" d="m458.83,134.93c1.26-.28,2.5.51,2.78,1.76s-.51,2.5-1.77,2.77c-1.25.28-2.49-.51-2.77-1.76s.51-2.49,1.76-2.77"/>
          <path class="cls-2" d="m454.98,114.5c1.28,0,2.33,1.04,2.33,2.32s-1.04,2.32-2.33,2.32-2.32-1.04-2.32-2.32,1.04-2.33,2.32-2.33"/>
          <path class="cls-2" d="m455.3,96.47c1.26.24,2.08,1.46,1.85,2.72-.24,1.26-1.46,2.09-2.72,1.84-1.26-.24-2.09-1.45-1.85-2.72.24-1.26,1.45-2.09,2.72-1.85"/>
          <path class="cls-2" d="m459.32,77.83c1.19.49,1.76,1.84,1.27,3.03-.48,1.19-1.85,1.75-3.03,1.26-1.19-.49-1.76-1.84-1.27-3.03.49-1.18,1.85-1.75,3.04-1.27"/>
          <path class="cls-2" d="m466.95,60.41c1.06.72,1.35,2.16.64,3.23s-2.16,1.35-3.22.64c-1.07-.71-1.36-2.16-.65-3.22s2.16-1.35,3.23-.64"/>
          <path class="cls-2" d="m478.81,43.8c.9.92.86,2.39-.06,3.29-.93.89-2.39.86-3.28-.07-.89-.92-.87-2.4.05-3.28.92-.89,2.4-.86,3.29.06"/>
          <path class="cls-2" d="m492.68,31.03c.69,1.08.37,2.52-.71,3.21-1.08.69-2.52.37-3.2-.71-.7-1.08-.38-2.52.7-3.21,1.08-.69,2.52-.37,3.21.71"/>
          <path class="cls-2" d="m507.82,21.7c.49,1.19-.1,2.54-1.29,3.02-1.18.48-2.54-.1-3.02-1.3-.48-1.19.1-2.54,1.29-3.02,1.18-.48,2.54.11,3.01,1.29"/>
          <path class="cls-2" d="m525.32,15.12c.24,1.26-.59,2.47-1.86,2.71-1.26.23-2.47-.6-2.71-1.86-.24-1.26.59-2.48,1.85-2.71,1.26-.23,2.49.6,2.71,1.86"/>
          <path class="cls-3" d="m561.23,100.44c-1.05-7.39-5.59-9.95-10.61-9.95-6.06,0-10.23,3.51-11.55,9.95h22.17-.01Zm12.88,19.13c-5.88,7.86-13.45,12.03-23.11,12.03-12.41,0-24.35-7.86-24.35-25.29,0-15.91,10.23-24.91,23.59-24.91,12.5,0,17.71,7.48,18.66,8.9,3.88,5.49,4.74,13.73,4.83,18.47h-35.05c1.33,7.48,5.96,11.74,13.45,11.74s10.89-4.55,12.31-6.53l9.66,5.59h0Z"/>
          <path class="cls-3" d="m593.71,82.83v6.72c1.42-2.46,4.55-8.05,15.16-7.77v11.65c-2.46.1-6.72.19-10.23,2.84-4.83,3.69-4.93,8.52-4.93,16.39v17.52h-10.99v-47.36h10.99Z"/>
          <path class="cls-3" d="m644.87,99.59c-.85-3.13-4.17-8.05-10.7-8.05s-11.75,5.21-11.75,14.68c0,8.52,4.46,14.78,11.94,14.78s9.95-5.49,11.37-9.29l9.76,5.12c-3.69,10.23-13.07,14.78-21.31,14.78-13.17,0-23.49-10.14-23.49-25.1s10.42-25.1,23.87-25.1c11.93,0,18,7.96,20.46,13.45l-10.13,4.73h-.02Z"/>
        </g>
      </g>
      <polygon class="cls-3" points="401.14 237.74 401.14 241.74 409.33 241.74 409.33 244.49 401.14 244.49 401.14 249.04 410.7 249.04 410.7 251.9 398 251.9 398 234.89 410.1 234.89 410.1 237.74 401.14 237.74"/>
      <g class="cls-8">
        <g>
          <path class="cls-3" d="m423.65,239.86v12.05h-2.89v-1.23c-.51.48-1.69,1.52-3.91,1.52-1.98,0-2.91-.84-3.35-1.4-.82-1.04-.82-2.17-.82-3.97v-6.97h2.92v6.92c0,.48,0,.89.09,1.21.31,1.06,1.18,1.51,2.24,1.51,1.21,0,1.95-.65,2.34-1.28.43-.79.46-1.56.48-3.25v-5.11h2.9Z"/>
          <path class="cls-3" d="m429.57,239.86v1.71c.37-.63,1.16-2.05,3.86-1.97v2.96c-.62.03-1.71.05-2.6.73-1.23.94-1.26,2.17-1.26,4.17v4.45h-2.79v-12.05h2.79Z"/>
          <path class="cls-3" d="m440.26,242.1c-1.81,0-3.11,1.45-3.11,3.66,0,2.48,1.52,3.86,3.25,3.86,2.1,0,3.16-1.83,3.09-3.83-.05-2-1.21-3.69-3.23-3.69m.15,10.16c-3.76,0-6.26-2.74-6.26-6.43s2.55-6.34,6.14-6.34c3.35,0,6.22,2.34,6.24,6.34,0,3.75-2.49,6.43-6.12,6.43"/>
          <path class="cls-3" d="m454.7,249.55c1.4,0,2.91-.96,2.91-3.69,0-3.01-2.1-3.59-2.96-3.59-1.33,0-2.84.96-2.89,3.54-.05,2.48,1.32,3.73,2.94,3.73m-5.78-9.69h2.86v1.11c.46-.48,1.43-1.47,3.31-1.47,3.54,0,5.47,3.18,5.47,6.5,0,3.59-2.24,6.26-5.47,6.26-1.67,0-2.7-.8-3.31-1.35v4.91h-2.86v-15.97h0Z"/>
          <path class="cls-3" d="m471.01,244.34c-.27-1.88-1.42-2.53-2.7-2.53-1.54,0-2.6.89-2.94,2.53h5.64Zm3.28,4.87c-1.49,2-3.42,3.06-5.88,3.06-3.15,0-6.19-2-6.19-6.43,0-4.05,2.6-6.34,6-6.34,3.18,0,4.51,1.91,4.75,2.26.99,1.4,1.21,3.49,1.23,4.7h-8.92c.34,1.9,1.52,2.99,3.42,2.99s2.78-1.15,3.14-1.66l2.46,1.42h-.01Z"/>
          <path class="cls-3" d="m483.57,245.91c-.58.29-1.23.51-2.53.72-1.04.14-2.41.38-2.41,1.66,0,.94.79,1.42,1.96,1.42,1.47,0,2.5-.67,2.82-1.4.17-.36.17-.72.17-1.08v-1.32h-.01Zm-7.45-2.51c.05-.6.09-1.11.48-1.81,1.16-2.09,4.03-2.09,4.8-2.09,1.16,0,2.56.14,3.62.77,1.42.87,1.45,2,1.45,3.31v6.38c0,.92,0,1.23.53,1.95h-3.42c-.03-.29-.07-.77-.07-.94-.62.53-1.9,1.23-3.57,1.23-2.73,0-4.36-1.68-4.36-3.76,0-.6.14-1.16.38-1.64.87-1.73,2.73-2.12,3.88-2.34,2.48-.5,2.67-.55,3.74-.89,0-.6-.05-1.84-2.05-1.84-1.2,0-1.86.39-2.14.77-.31.38-.29.72-.29,1.06l-2.96-.17h-.02Z"/>
          <path class="cls-3" d="m489.52,239.86h2.92v1.42c.14-.22.43-.6.94-.94.73-.53,1.83-.84,2.77-.84,1.37,0,2.56.62,3.16,1.44.74,1.01.74,2.32.74,3.88v7.08h-2.87v-6.14c0-.89,0-1.49-.1-1.83-.27-1.06-1.04-1.61-1.98-1.61s-1.81.56-2.22,1.35c-.46.89-.46,2.12-.46,3.01v5.22h-2.92v-12.05h.02Z"/>
          <path class="cls-3" d="m513.19,237.64v5.33h1.11c1.09,0,1.49-.02,2.09-.05.7-.02,2.99-.15,2.99-2.63,0-.36-.03-1.62-1.35-2.29-.67-.33-1.5-.36-3.38-.36h-1.47,0Zm-3.16-2.75h5.42c2.26.03,3.78.03,5.28,1.23,1.06.87,1.88,2.22,1.88,4.19,0,3.26-2.39,4.39-3.35,4.68l3.78,6.91h-3.64l-3.37-6.31h-2.84v6.31h-3.16v-17.01h0Z"/>
          <path class="cls-3" d="m533.27,244.34c-.27-1.88-1.42-2.53-2.7-2.53-1.54,0-2.6.89-2.94,2.53h5.64Zm3.28,4.87c-1.49,2-3.42,3.06-5.88,3.06-3.16,0-6.2-2-6.2-6.43,0-4.05,2.61-6.34,6-6.34,3.18,0,4.51,1.91,4.75,2.26.99,1.4,1.21,3.49,1.23,4.7h-8.91c.33,1.9,1.52,2.99,3.42,2.99s2.78-1.15,3.14-1.66l2.46,1.42h-.01Z"/>
          <path class="cls-3" d="m539.87,248.34c.72.89,1.81,1.54,3.47,1.54s2.39-.82,2.39-1.42c0-.77-.87-.96-1.25-1.04-.41-.1-2.39-.46-2.82-.58-2.87-.68-3.4-2.33-3.4-3.42,0-2.05,1.86-3.92,5.16-3.92,1.83,0,3.16.58,3.98,1.16.6.38.98.79,1.23,1.08l-2.05,1.91c-.34-.65-1.16-1.83-3.28-1.83-1.37,0-2,.6-2,1.23,0,.87.9,1.11,2.43,1.37,2.51.46,3.2.58,3.98,1.18.75.58,1.23,1.54,1.23,2.56,0,1.88-1.69,4.11-5.43,4.11-2.15,0-4.27-.67-5.78-2.14l2.14-1.78h0Z"/>
          <path class="cls-3" d="m559.37,244.34c-.26-1.88-1.42-2.53-2.7-2.53-1.54,0-2.6.89-2.94,2.53h5.64Zm3.28,4.87c-1.5,2-3.42,3.06-5.88,3.06-3.16,0-6.19-2-6.19-6.43,0-4.05,2.6-6.34,6-6.34,3.18,0,4.51,1.91,4.75,2.26.99,1.4,1.21,3.49,1.23,4.7h-8.92c.34,1.9,1.52,2.99,3.42,2.99s2.77-1.15,3.13-1.66l2.46,1.42Z"/>
          <path class="cls-3" d="m571.92,245.91c-.58.29-1.23.51-2.53.72-1.04.14-2.41.38-2.41,1.66,0,.94.8,1.42,1.95,1.42,1.47,0,2.5-.67,2.82-1.4.17-.36.17-.72.17-1.08v-1.32Zm-7.45-2.51c.05-.6.1-1.11.48-1.81,1.16-2.09,4.02-2.09,4.8-2.09,1.15,0,2.55.14,3.61.77,1.42.87,1.45,2,1.45,3.31v6.38c0,.92,0,1.23.53,1.95h-3.42c-.03-.29-.07-.77-.07-.94-.62.53-1.9,1.23-3.56,1.23-2.72,0-4.36-1.68-4.36-3.76,0-.6.15-1.16.39-1.64.87-1.73,2.73-2.12,3.88-2.34,2.48-.5,2.67-.55,3.73-.89,0-.6-.05-1.84-2.05-1.84-1.21,0-1.86.39-2.15.77-.31.38-.29.72-.29,1.06l-2.96-.17h-.01Z"/>
          <path class="cls-3" d="m580.69,239.86v1.71c.36-.63,1.16-2.05,3.86-1.97v2.96c-.62.03-1.71.05-2.6.73-1.23.94-1.25,2.17-1.25,4.17v4.45h-2.79v-12.05h2.79-.01Z"/>
          <path class="cls-3" d="m593.69,244.13c-.22-.8-1.06-2.05-2.73-2.05s-2.99,1.32-2.99,3.73c0,2.17,1.13,3.76,3.04,3.76s2.53-1.4,2.89-2.36l2.48,1.3c-.93,2.6-3.32,3.76-5.42,3.76-3.35,0-5.97-2.58-5.97-6.38s2.65-6.39,6.07-6.39c3.03,0,4.58,2.02,5.2,3.42l-2.58,1.2h0Z"/>
          <path class="cls-3" d="m600.38,234.89v6.19c.91-.91,2.17-1.59,3.83-1.59,1.49,0,2.65.58,3.3,1.3.99,1.06,1.01,2.29,1.01,3.66v7.44h-2.84v-6.62c-.04-1.09-.04-1.35-.19-1.71-.1-.24-.51-1.33-2.1-1.33-1.86,0-2.73,1.49-2.92,2.19-.09.38-.09.58-.09,1.93v5.54h-2.9v-17.01h2.9Z"/>
          <path class="cls-3" d="m632.76,247.16c-.22.56-.63,1.54-1.47,2.56-1.21,1.4-3.11,2.62-5.88,2.62-4.51,0-7.96-3.3-7.96-8.99s3.74-8.89,8.07-8.89c5.3,0,6.56,4.07,6.94,5.25l-3.18.84c-.05-.32-.19-1.04-.62-1.69-.36-.53-1.3-1.49-3.06-1.49-2.77,0-4.7,2.29-4.7,5.92,0,3.88,2.05,6.03,4.73,6.03,1.59,0,2.55-.77,3.25-1.66.55-.74.78-1.37.89-1.76l2.99,1.25h0Z"/>
          <path class="cls-3" d="m640.11,242.1c-1.81,0-3.11,1.45-3.11,3.66,0,2.48,1.52,3.86,3.26,3.86,2.1,0,3.16-1.83,3.09-3.83-.05-2-1.21-3.69-3.23-3.69m.14,10.16c-3.76,0-6.27-2.74-6.27-6.43s2.56-6.34,6.15-6.34c3.35,0,6.22,2.34,6.24,6.34,0,3.75-2.48,6.43-6.12,6.43"/>
          <path class="cls-3" d="m659.66,239.86v12.05h-2.89v-1.23c-.51.48-1.69,1.52-3.91,1.52-1.97,0-2.91-.84-3.35-1.4-.82-1.04-.82-2.17-.82-3.97v-6.97h2.92v6.92c0,.48,0,.89.09,1.21.32,1.06,1.18,1.51,2.25,1.51,1.2,0,1.95-.65,2.33-1.28.43-.79.46-1.56.49-3.25v-5.11h2.89,0Z"/>
          <path class="cls-3" d="m662.77,239.86h2.92v1.42c.15-.22.43-.6.94-.94.73-.53,1.83-.84,2.77-.84,1.38,0,2.56.62,3.16,1.44.74,1.01.74,2.32.74,3.88v7.08h-2.87v-6.14c0-.89,0-1.49-.1-1.83-.27-1.06-1.03-1.61-1.97-1.61s-1.81.56-2.22,1.35c-.46.89-.46,2.12-.46,3.01v5.22h-2.92v-12.05h0Z"/>
          <path class="cls-3" d="m684.08,244.13c-.22-.8-1.06-2.05-2.73-2.05s-2.99,1.32-2.99,3.73c0,2.17,1.13,3.76,3.04,3.76s2.53-1.4,2.89-2.36l2.48,1.3c-.94,2.6-3.33,3.76-5.42,3.76-3.35,0-5.97-2.58-5.97-6.38s2.65-6.39,6.07-6.39c3.04,0,4.58,2.02,5.2,3.42l-2.57,1.2h0Z"/>
        </g>
      </g>
      <path class="cls-3" d="m688.41,239.86h2.87v12.05h-2.87v-12.05Zm2.87-1.88h-2.87v-2.92h2.87v2.92Z"/>
      <rect class="cls-3" x="694.44" y="234.89" width="2.92" height="17.01"/>
      <polygon class="cls-3" points="398.13 285.68 398.13 273.91 405.43 273.91 405.43 275.03 399.38 275.03 399.38 279.18 404.54 279.18 404.54 280.3 399.38 280.3 399.38 284.55 405.43 284.55 405.43 285.68 398.13 285.68"/>
      <g class="cls-7">
        <g>
          <path class="cls-3" d="m410.39,285.78c-1.37,0-2.45-.31-3.34-1.17l.79-.79c.65.68,1.52.94,2.53.94,1.34,0,2.16-.48,2.16-1.44,0-.71-.41-1.11-1.35-1.19l-1.34-.12c-1.59-.13-2.43-.84-2.43-2.18,0-1.49,1.26-2.38,2.99-2.38,1.16,0,2.2.28,2.93.88l-.78.78c-.58-.45-1.32-.64-2.17-.64-1.19,0-1.82.51-1.82,1.34,0,.69.4,1.11,1.42,1.19l1.31.12c1.42.13,2.4.68,2.4,2.2s-1.34,2.48-3.3,2.48"/>
          <path class="cls-3" d="m418.14,285.68c-1.39,0-2.08-.98-2.08-2.18v-4.99h-1.02v-.91h1.02v-2.54h1.19v2.54h1.74v.91h-1.74v4.96c0,.75.35,1.19,1.11,1.19h.63v1.02h-.85Z"/>
          <path class="cls-3" d="m425.82,281.92h-2.28c-1.22,0-1.82.5-1.82,1.44s.58,1.39,1.87,1.39c.69,0,1.31-.05,1.82-.55.28-.27.41-.73.41-1.41v-.88h0Zm0,3.75v-.78c-.66.66-1.26.88-2.35.88s-1.79-.22-2.3-.74c-.4-.4-.61-1.01-.61-1.65,0-1.42.99-2.35,2.81-2.35h2.45v-.78c0-1.19-.6-1.78-2.08-1.78-1.04,0-1.57.25-2.05.93l-.81-.74c.73-.94,1.56-1.21,2.88-1.21,2.18,0,3.26.94,3.26,2.71v5.52h-1.2Z"/>
          <path class="cls-3" d="m433.14,278.5c-1.77,0-2.05,1.52-2.05,3.11s.28,3.11,2.05,3.11,2.03-1.52,2.03-3.11-.26-3.11-2.03-3.11m2.23,6.56c-.43.43-1.16.71-1.98.71-.89,0-1.64-.22-2.3-1.08v.98h-1.19v-11.77h1.19v4.58c.66-.84,1.4-1.04,2.3-1.04.83,0,1.55.28,1.98.71.83.83.99,2.18.99,3.45s-.17,2.63-.99,3.46"/>
          <path class="cls-3" d="m440.93,285.68c-1.42,0-2.07-.92-2.07-2.16v-9.61h1.19v9.55c0,.79.26,1.19,1.09,1.19h.65v1.02h-.86Z"/>
        </g>
      </g>
      <path class="cls-3" d="m443.81,277.54h1.19v8.13h-1.19v-8.13Zm-.07-3.65h1.34v1.34h-1.34v-1.34Z"/>
      <g class="cls-13">
        <g>
          <path class="cls-3" d="m450.55,285.78c-1.37,0-2.45-.31-3.34-1.17l.79-.79c.65.68,1.52.94,2.53.94,1.34,0,2.16-.48,2.16-1.44,0-.71-.41-1.11-1.35-1.19l-1.34-.12c-1.59-.13-2.43-.84-2.43-2.18,0-1.49,1.26-2.38,2.99-2.38,1.16,0,2.2.28,2.93.88l-.78.78c-.58-.45-1.32-.64-2.17-.64-1.19,0-1.82.51-1.82,1.34,0,.69.4,1.11,1.42,1.19l1.31.12c1.42.13,2.4.68,2.4,2.2s-1.34,2.48-3.3,2.48"/>
          <path class="cls-3" d="m461.39,285.68v-5.02c0-1.42-.76-2.15-1.98-2.15s-2.03.75-2.03,2.15v5.02h-1.19v-11.77h1.19v4.53c.6-.68,1.37-.99,2.28-.99,1.84,0,2.93,1.18,2.93,3.01v5.22h-1.2Z"/>
          <path class="cls-3" d="m470.26,279.67c-.31-.74-1.04-1.22-1.9-1.22s-1.59.48-1.9,1.22c-.18.45-.21.69-.25,1.36h4.3c-.03-.66-.07-.91-.25-1.36m-4.05,2.25c0,1.79.84,2.81,2.4,2.81.94,0,1.49-.28,2.13-.93l.81.71c-.83.83-1.59,1.26-2.98,1.26-2.15,0-3.55-1.29-3.55-4.17,0-2.63,1.27-4.17,3.34-4.17s3.34,1.52,3.34,3.94v.54h-5.49Z"/>
          <path class="cls-3" d="m477.03,278.5c-1.77,0-2.05,1.52-2.05,3.11s.28,3.11,2.05,3.11,2.03-1.52,2.03-3.11-.26-3.11-2.03-3.11m2.05,7.17v-.98c-.66.86-1.42,1.08-2.31,1.08-.83,0-1.55-.28-1.98-.71-.83-.83-.99-2.18-.99-3.45s.17-2.63.99-3.46c.43-.43,1.16-.71,1.98-.71.89,0,1.64.2,2.3,1.04v-4.58h1.19v11.77h-1.18Z"/>
          <path class="cls-3" d="m490.58,278.5c-1.77,0-2.05,1.52-2.05,3.11s.28,3.11,2.05,3.11,2.03-1.52,2.03-3.11-.26-3.11-2.03-3.11m2.23,6.56c-.43.43-1.16.71-1.98.71-.89,0-1.64-.22-2.3-1.08v.98h-1.19v-11.77h1.19v4.58c.66-.84,1.41-1.04,2.3-1.04.83,0,1.55.28,1.98.71.83.83.99,2.18.99,3.45s-.17,2.63-.99,3.46"/>
          <path class="cls-3" d="m498.36,287.64c-.17.45-.35.74-.58.96-.43.41-1.01.56-1.59.56h-.51v-1.06h.36c.83,0,1.07-.27,1.34-1.01l.58-1.59-2.93-7.97h1.29l2.23,6.53,2.21-6.53h1.29l-3.7,10.1h.01Z"/>
          <path class="cls-3" d="m510.13,285.68c-1.39,0-2.08-.98-2.08-2.18v-4.99h-1.02v-.91h1.02v-2.54h1.19v2.54h1.73v.91h-1.73v4.96c0,.75.35,1.19,1.11,1.19h.63v1.02h-.85Z"/>
          <path class="cls-3" d="m518.54,285.68v-5.02c0-1.42-.76-2.15-1.98-2.15s-2.03.75-2.03,2.15v5.02h-1.19v-11.77h1.19v4.53c.59-.68,1.37-.99,2.28-.99,1.84,0,2.93,1.18,2.93,3.01v5.22h-1.2Z"/>
          <path class="cls-3" d="m527.41,279.67c-.31-.74-1.04-1.22-1.9-1.22s-1.59.48-1.9,1.22c-.18.45-.21.69-.25,1.36h4.3c-.03-.66-.07-.91-.25-1.36m-4.05,2.25c0,1.79.84,2.81,2.4,2.81.94,0,1.49-.28,2.13-.93l.81.71c-.83.83-1.59,1.26-2.98,1.26-2.15,0-3.55-1.29-3.55-4.17,0-2.63,1.27-4.17,3.34-4.17s3.34,1.52,3.34,3.94v.54h-5.49Z"/>
        </g>
      </g>
      <polygon class="cls-3" points="535.7 285.68 535.7 273.91 543.01 273.91 543.01 275.03 536.96 275.03 536.96 279.18 542.12 279.18 542.12 280.3 536.96 280.3 536.96 284.55 543.01 284.55 543.01 285.68 535.7 285.68"/>
      <g class="cls-12">
        <g>
          <path class="cls-3" d="m550.54,285.68v-.91c-.58.66-1.39,1.01-2.3,1.01s-1.6-.27-2.1-.76c-.58-.56-.83-1.34-.83-2.28v-5.19h1.19v5.01c0,1.44.76,2.17,1.98,2.17s2.03-.74,2.03-2.17v-5.01h1.19v8.13h-1.17,0Z"/>
          <path class="cls-3" d="m559.23,279.1c-.45-.45-.78-.6-1.41-.6-1.19,0-1.95.94-1.95,2.18v4.99h-1.19v-8.13h1.19v.99c.45-.68,1.34-1.09,2.28-1.09.78,0,1.37.18,1.95.76l-.88.89h0Z"/>
          <path class="cls-3" d="m565.46,279.1c-.38-.38-.91-.6-1.49-.6s-1.09.22-1.47.6c-.6.59-.66,1.6-.66,2.51s.07,1.92.66,2.51c.38.38.89.6,1.47.6s1.11-.22,1.49-.6c.6-.59.64-1.6.64-2.51s-.05-1.92-.64-2.51m.84,5.75c-.56.56-1.34.93-2.33.93s-1.77-.37-2.33-.93c-.83-.84-.99-1.98-.99-3.24s.16-2.4.99-3.24c.56-.56,1.34-.93,2.33-.93s1.77.36,2.33.93c.83.84.99,1.98.99,3.24s-.16,2.4-.99,3.24"/>
          <path class="cls-3" d="m573.07,278.5c-1.77,0-2.05,1.52-2.05,3.11s.28,3.11,2.05,3.11,2.03-1.52,2.03-3.11-.26-3.11-2.03-3.11m2.23,6.56c-.43.43-1.16.71-1.99.71-.89,0-1.63-.22-2.3-1.06v4.59h-1.19v-11.77h1.19v.96c.66-.86,1.4-1.06,2.3-1.06.83,0,1.56.28,1.99.71.82.83.99,2.18.99,3.45s-.17,2.63-.99,3.46"/>
          <path class="cls-3" d="m583.63,279.67c-.31-.74-1.04-1.22-1.9-1.22s-1.59.48-1.9,1.22c-.18.45-.22.69-.25,1.36h4.3c-.03-.66-.07-.91-.25-1.36m-4.05,2.25c0,1.79.84,2.81,2.4,2.81.94,0,1.49-.28,2.13-.93l.81.71c-.83.83-1.59,1.26-2.97,1.26-2.15,0-3.55-1.29-3.55-4.17,0-2.63,1.27-4.17,3.34-4.17s3.34,1.52,3.34,3.94v.54h-5.5Z"/>
          <path class="cls-3" d="m592.21,281.92h-2.28c-1.22,0-1.82.5-1.82,1.44s.58,1.39,1.87,1.39c.69,0,1.31-.05,1.82-.55.28-.27.41-.73.41-1.41v-.88h0Zm0,3.75v-.78c-.66.66-1.26.88-2.35.88s-1.78-.22-2.3-.74c-.4-.4-.61-1.01-.61-1.65,0-1.42.99-2.35,2.81-2.35h2.45v-.78c0-1.19-.6-1.78-2.08-1.78-1.04,0-1.57.25-2.05.93l-.81-.74c.73-.94,1.55-1.21,2.88-1.21,2.18,0,3.26.94,3.26,2.71v5.52h-1.2Z"/>
          <path class="cls-3" d="m601.49,285.68v-5.01c0-1.44-.78-2.17-2-2.17s-2.02.75-2.02,2.17v5.01h-1.19v-8.13h1.19v.89c.58-.66,1.37-.99,2.28-.99s1.59.27,2.08.76c.58.56.84,1.32.84,2.26v5.21h-1.19,0Z"/>
          <path class="cls-3" d="m613.57,285.78c-1.16,0-2.22-.43-3.01-1.22-1.11-1.11-1.11-2.26-1.11-4.76s0-3.65,1.11-4.76c.79-.79,1.85-1.22,3.01-1.22,2.12,0,3.69,1.29,4.08,3.5h-1.29c-.32-1.44-1.32-2.38-2.79-2.38-.78,0-1.52.3-2.03.83-.75.76-.83,1.57-.83,4.03s.08,3.27.83,4.03c.51.53,1.25.83,2.03.83,1.47,0,2.51-.94,2.83-2.38h1.26c-.38,2.21-1.98,3.51-4.08,3.51"/>
          <path class="cls-3" d="m624.59,279.1c-.38-.38-.91-.6-1.49-.6s-1.09.22-1.47.6c-.6.59-.66,1.6-.66,2.51s.07,1.92.66,2.51c.38.38.89.6,1.47.6s1.11-.22,1.49-.6c.6-.59.64-1.6.64-2.51s-.05-1.92-.64-2.51m.84,5.75c-.56.56-1.34.93-2.33.93s-1.77-.37-2.33-.93c-.83-.84-.99-1.98-.99-3.24s.16-2.4.99-3.24c.56-.56,1.34-.93,2.33-.93s1.77.36,2.33.93c.82.84.99,1.98.99,3.24s-.17,2.4-.99,3.24"/>
          <path class="cls-3" d="m639.41,285.68v-5.01c0-1.44-.78-2.17-2-2.17s-2.04.75-2.04,2.03v5.14h-1.19v-5.01c0-1.44-.78-2.17-2-2.17s-2.03.75-2.03,2.17v5.01h-1.19v-8.13h1.19v.89c.58-.66,1.39-.99,2.3-.99,1.12,0,2,.46,2.5,1.36.63-.89,1.54-1.36,2.68-1.36.88,0,1.6.28,2.1.76.58.56.88,1.32.88,2.26v5.21h-1.2Z"/>
          <path class="cls-3" d="m653.93,285.68v-5.01c0-1.44-.78-2.17-2-2.17s-2.03.75-2.03,2.03v5.14h-1.19v-5.01c0-1.44-.78-2.17-2-2.17s-2.03.75-2.03,2.17v5.01h-1.19v-8.13h1.19v.89c.58-.66,1.39-.99,2.3-.99,1.12,0,2,.46,2.49,1.36.63-.89,1.54-1.36,2.68-1.36.88,0,1.6.28,2.1.76.58.56.88,1.32.88,2.26v5.21h-1.2Z"/>
        </g>
      </g>
      <path class="cls-3" d="m658.01,277.54h1.19v8.13h-1.19v-8.13Zm-.07-3.65h1.34v1.34h-1.34v-1.34Z"/>
      <g class="cls-10">
        <g>
          <path class="cls-3" d="m664.75,285.78c-1.37,0-2.45-.31-3.34-1.17l.79-.79c.64.68,1.52.94,2.53.94,1.34,0,2.17-.48,2.17-1.44,0-.71-.41-1.11-1.36-1.19l-1.34-.12c-1.59-.13-2.43-.84-2.43-2.18,0-1.49,1.26-2.38,2.99-2.38,1.16,0,2.2.28,2.93.88l-.78.78c-.58-.45-1.32-.64-2.16-.64-1.19,0-1.82.51-1.82,1.34,0,.69.4,1.11,1.42,1.19l1.31.12c1.42.13,2.4.68,2.4,2.2s-1.34,2.48-3.31,2.48"/>
          <path class="cls-3" d="m672.68,285.78c-1.37,0-2.45-.31-3.34-1.17l.79-.79c.64.68,1.52.94,2.53.94,1.34,0,2.16-.48,2.16-1.44,0-.71-.41-1.11-1.36-1.19l-1.34-.12c-1.59-.13-2.43-.84-2.43-2.18,0-1.49,1.26-2.38,2.99-2.38,1.16,0,2.2.28,2.93.88l-.78.78c-.58-.45-1.32-.64-2.16-.64-1.19,0-1.82.51-1.82,1.34,0,.69.4,1.11,1.42,1.19l1.31.12c1.42.13,2.4.68,2.4,2.2s-1.34,2.48-3.31,2.48"/>
        </g>
      </g>
      <path class="cls-3" d="m678.31,277.54h1.19v8.13h-1.19v-8.13Zm-.07-3.65h1.34v1.34h-1.34v-1.34Z"/>
      <g class="cls-11">
        <g>
          <path class="cls-3" d="m686.87,279.1c-.38-.38-.91-.6-1.49-.6s-1.09.22-1.47.6c-.6.59-.66,1.6-.66,2.51s.07,1.92.66,2.51c.38.38.89.6,1.47.6s1.11-.22,1.49-.6c.6-.59.64-1.6.64-2.51s-.05-1.92-.64-2.51m.84,5.75c-.56.56-1.34.93-2.33.93s-1.77-.37-2.33-.93c-.83-.84-.99-1.98-.99-3.24s.16-2.4.99-3.24c.56-.56,1.34-.93,2.33-.93s1.77.36,2.33.93c.83.84.99,1.98.99,3.24s-.17,2.4-.99,3.24"/>
          <path class="cls-3" d="m696.45,285.68v-5.01c0-1.44-.78-2.17-2-2.17s-2.02.75-2.02,2.17v5.01h-1.19v-8.13h1.19v.89c.58-.66,1.37-.99,2.28-.99s1.59.27,2.08.76c.58.56.84,1.32.84,2.26v5.21h-1.19,0Z"/>
        </g>
      </g>
    </g>
  </g>
</svg>