<svg width="188" height="28" viewBox="0 0 188 28" fill="none" xmlns="http://www.w3.org/2000/svg">
<path d="M175.76 14.0934C175.76 17.64 178.187 19.9733 181.547 19.9733C184.907 19.9733 187.333 17.64 187.333 14.1867C187.333 10.7333 184.907 8.40002 181.547 8.40002C178.187 8.40002 175.76 10.64 175.76 14.0934ZM185 14.0934C185 17.5467 183.787 19.32 181.547 19.32C179.12 19.32 178 17.4533 178 13.72C178 10.36 179.12 8.77335 181.547 8.77335C184.16 8.86668 185 10.64 185 14.0934ZM168.48 8.86668C170.253 8.86668 170.907 10.08 170.907 12.32C170.907 14.56 170.067 15.7733 168.387 15.7733C166.707 15.7733 166.053 14.6533 166.053 12.32C166.053 9.98668 166.613 8.86668 168.48 8.86668ZM172.027 9.61335C171.093 8.77335 169.88 8.30668 168.573 8.30668C165.867 8.30668 164.093 9.98668 164.093 12.32C164.093 13.9067 164.84 15.0267 166.427 15.96C164.84 16.24 164 17.08 164 18.2C164 20.16 166.24 20.16 169.413 20.44C171.933 20.6267 173.147 21.28 173.147 22.68C173.147 24.36 171.467 25.48 169.133 25.48C166.333 25.48 164.653 24.36 164.653 22.7733C164.653 22.12 164.933 21.56 165.493 21.0934C165.4 20.8134 165.213 20.6267 164.933 20.6267C164.187 20.6267 163.533 21.4667 163.533 22.5867C163.533 24.5467 165.493 26.04 169.227 26.04C172.773 26.04 174.64 24.36 174.64 22.0267C174.64 19.6934 172.96 18.6667 169.693 18.3867C166.893 18.1067 165.493 18.2933 165.493 17.2667C165.493 16.6133 166.427 16.24 168.2 16.24H168.667C171.56 16.24 173.333 14.7467 173.333 12.2267C173.333 11.3867 173.147 10.7333 172.68 9.89335C173.333 9.42668 173.8 9.14668 173.987 9.14668C174.36 9.14668 174.36 10.2667 175.2 10.2667C175.76 10.2667 176.04 9.89335 176.04 9.33335C176.04 8.77335 175.48 8.21335 174.64 8.21335C173.613 8.30668 172.96 8.77335 172.027 9.61335ZM160.36 7.93335C159.053 8.21335 157.84 8.49335 156.44 8.58668V9.05335H156.813C157.933 9.05335 158.12 9.42668 158.12 10.92V16.9867V17.8267C158.12 18.48 157.56 18.9467 156.533 18.9467C156.44 18.9467 156.253 18.9467 156.067 18.9467V19.5067H161.947V18.9467H161.667C160.267 18.9467 160.173 18.3867 160.173 16.9867L160.36 7.93335ZM159.24 2.33335C158.493 2.33335 157.84 2.89335 157.84 3.64002C157.84 4.38668 158.493 4.94668 159.24 4.94668C159.987 4.94668 160.64 4.38668 160.64 3.64002C160.64 2.89335 159.987 2.33335 159.24 2.33335ZM138.333 1.58668V2.24002H138.427C140.293 2.24002 140.667 3.17335 141.413 5.04002L147.947 19.9733H148.88L154.48 5.13335C155.133 3.54668 155.6 2.61335 156.907 2.33335V1.58668H152.333V2.24002C153.453 2.33335 153.92 2.89335 153.92 3.73335C153.92 4.10668 153.827 4.57335 153.547 5.13335L149.44 16.8L143.933 4.20002C143.747 3.73335 143.653 3.36002 143.653 3.17335C143.653 2.52002 144.12 2.24002 145.053 2.24002H145.987V1.58668H138.333ZM143.84 19.5067C143.84 16.9867 142.067 15.4 139.547 15.4C136.373 15.4 134.133 17.8267 134.133 21.3733C134.133 24.7333 136.28 26.9733 139.547 26.9733C142.067 26.9733 143.84 25.6667 144.12 23.8934H143.467C143.093 25.3867 141.693 26.32 139.92 26.32C137.307 26.32 136.373 24.7333 136.373 21.4667C136.373 20.8133 136.373 20.16 136.467 19.5067H143.84ZM141.6 19.04H136.467C136.653 17.08 137.587 16.0534 139.267 16.0534C140.667 16.0534 141.6 16.8 141.6 18.2C141.6 18.2933 141.6 18.5733 141.6 19.04ZM129.373 11.1067V16.9867C128.16 15.96 127.133 15.4934 125.733 15.4934C122.56 15.4934 120.227 17.8267 120.227 21.4667C120.227 24.8267 122.373 27.16 125.36 27.16C126.947 27.16 128.16 26.6 129.373 25.3867C129.373 25.9467 129.467 26.5067 129.653 27.16C130.773 26.9734 131.893 26.88 133.2 26.6934V26.1333H132.827C131.8 26.1333 131.427 25.5733 131.427 24.08V8.12002C130.213 8.40002 128.907 8.68002 127.6 8.77335V9.24002H127.973C129.187 9.24002 129.373 9.61335 129.373 11.1067ZM129.373 17.8267V24.4534C128.44 25.6667 127.32 26.2267 126.107 26.2267C124.053 26.2267 122.653 24.5467 122.653 21.3733C122.653 17.92 124.24 16.0534 126.293 16.0534C127.32 16.1467 128.44 16.7067 129.373 17.8267ZM114.44 12.9733V17.2667C113.04 18.3867 111.92 18.8534 111.08 18.8534C110.053 18.8534 109.493 18.2 109.493 17.08C109.4 15.2133 111.08 14.0933 114.44 12.9733ZM116.493 12.2267C116.493 9.80002 116.12 8.21335 112.387 8.21335C109.307 8.21335 107.72 9.52002 107.72 10.64C107.72 11.2 108.093 11.48 108.56 11.48C109.493 11.48 109.587 10.5467 109.68 9.98668C109.96 9.14668 110.8 8.77335 112.013 8.77335C113.787 8.77335 114.44 9.52002 114.44 11.0133V12.2267C109.587 14 107.16 15.4 107.16 17.5467C107.16 18.9467 108.093 19.88 109.587 19.88C110.987 19.88 112.573 19.2267 114.44 17.92C114.72 19.2267 115.467 19.7867 116.68 19.7867C117.987 19.7867 118.827 18.9467 118.827 17.5467V17.4534H118.453C118.267 18.2934 117.893 18.76 117.24 18.76C116.587 18.76 116.4 18.2934 116.4 17.4534L116.493 12.2267ZM101.84 3.92002V9.80002C100.627 8.77335 99.6001 8.30668 98.2001 8.30668C95.0267 8.30668 92.6934 10.64 92.6934 14.28C92.6934 17.64 94.8401 19.9733 97.8267 19.9733C99.4134 19.9733 100.627 19.4133 101.84 18.2C101.84 18.76 101.933 19.32 102.12 19.9733C103.24 19.7867 104.36 19.6933 105.667 19.5067V19.04H105.293C104.267 19.04 103.893 18.48 103.893 16.9867V0.93335C102.68 1.21335 101.373 1.49335 100.067 1.58668V2.05335H100.44C101.56 2.05335 101.84 2.42668 101.84 3.92002ZM101.747 10.64V17.2667C100.813 18.48 99.6934 19.04 98.4801 19.04C96.4268 19.04 95.0267 17.36 95.0267 14.1867C95.0267 10.7333 96.6134 8.86668 98.6667 8.86668C99.6934 8.96002 100.813 9.52002 101.747 10.64ZM89.4267 7.93335C88.1201 8.21335 86.9067 8.49335 85.5067 8.58668V9.05335H85.8801C87.0001 9.05335 87.1867 9.42668 87.1867 10.92V16.9867V17.8267C87.1867 18.48 86.6267 18.9467 85.6001 18.9467C85.5067 18.9467 85.3201 18.9467 85.1334 18.9467V19.5067H91.2001V18.9467H90.9201C89.5201 18.9467 89.4267 18.3867 89.4267 16.9867V7.93335ZM88.3067 2.33335C87.5601 2.33335 86.9067 2.89335 86.9067 3.64002C86.9067 4.38668 87.5601 4.94668 88.3067 4.94668C89.0534 4.94668 89.7067 4.38668 89.7067 3.64002C89.6134 2.89335 89.0534 2.33335 88.3067 2.33335ZM82.2401 8.30668C82.1467 8.68002 81.9601 9.05335 81.6801 9.33335C80.8401 8.58668 80.0934 8.30668 78.9734 8.30668C76.9201 8.30668 75.7067 9.61335 75.7067 11.2C75.7067 12.32 76.3601 13.3467 77.6667 14C78.7867 14.6533 80.0934 14.9333 81.1201 15.7733C81.6801 16.24 81.9601 16.7067 81.9601 17.2667C81.9601 18.3867 81.1201 19.2267 79.7201 19.2267C77.9467 19.2267 76.8267 18.2 76.2667 16.1467H75.7067V19.7867H76.2667C76.3601 19.32 76.5467 18.9467 76.8267 18.6667C77.7601 19.5067 78.6934 19.7867 79.8134 19.7867C82.0534 19.7867 83.4534 18.48 83.4534 16.3333C83.4534 15.0267 82.6134 13.9067 81.0267 13.16C78.9734 12.1333 77.2001 11.8534 77.2001 10.36C77.2001 9.42668 77.9467 8.77335 79.1601 8.77335C80.6534 8.77335 81.5867 9.70668 82.3334 11.6667H82.8934V8.30668H82.2401ZM68.4267 7.93335C67.3067 8.30668 66.0934 8.49335 64.7867 8.58668V9.05335H65.1601C66.2801 9.05335 66.4667 9.42668 66.4667 10.92V16.9867V17.8267C66.4667 18.48 66.0001 18.9467 65.0667 18.9467H64.6934V19.5067H70.6667V18.9467H70.2934C68.8934 18.9467 68.7067 18.3867 68.7067 16.9867V12.6C68.7067 11.0133 70.2001 9.05335 71.3201 9.05335C71.6934 9.05335 72.0667 9.33335 72.1601 9.89335C72.2534 10.4534 72.5334 10.7333 73.0934 10.7333C73.6534 10.7333 74.0267 10.36 74.0267 9.80002C74.0267 8.96002 73.1867 8.21335 71.9734 8.21335C70.6667 8.21335 69.2668 9.14668 68.6134 10.7333C68.6134 10.4533 68.7067 10.1733 68.7067 9.80002C68.7067 9.24002 68.6134 8.58668 68.4267 7.93335ZM63.1067 12.4133C63.1067 9.89335 61.3334 8.30668 58.8134 8.30668C55.6401 8.30668 53.4001 10.7333 53.4001 14.28C53.4001 17.64 55.5467 19.88 58.8134 19.88C61.3334 19.88 63.1067 18.5733 63.3867 16.8H62.7334C62.3601 18.2933 60.9601 19.2267 59.1867 19.2267C56.5734 19.2267 55.6401 17.64 55.6401 14.3733C55.6401 13.72 55.6401 13.0667 55.7334 12.4133H63.1067ZM60.8667 11.8533H55.7334C55.9201 9.89335 56.8534 8.86668 58.5334 8.86668C59.9334 8.86668 60.8667 9.61335 60.8667 11.0133C60.9601 11.2 60.9601 11.48 60.8667 11.8533ZM40.6134 8.68002V9.24002C41.5467 9.42668 42.0134 10.08 42.0134 10.2667C42.0134 10.36 42.2001 10.64 42.4801 11.2L46.4934 19.9733H47.1467L50.8801 11.9467C51.6267 10.36 52.1867 9.52002 53.1201 9.33335V8.68002H49.5734V9.24002C50.5067 9.33335 50.7867 9.61335 50.7867 10.36C50.7867 10.5467 50.6934 10.92 50.5067 11.3867L47.6134 17.7333L44.5334 10.92C44.3467 10.4533 44.1601 10.1733 44.1601 9.98668C44.1601 9.42668 44.5334 9.24002 45.4667 9.24002V8.68002C45.5601 8.68002 40.6134 8.68002 40.6134 8.68002ZM38.5601 7.93335C37.2534 8.21335 36.0401 8.49335 34.6401 8.58668V9.05335H35.0134C36.1334 9.05335 36.3201 9.42668 36.3201 10.92V16.9867V17.8267C36.3201 18.48 35.7601 18.9467 34.7334 18.9467C34.6401 18.9467 34.4534 18.9467 34.2667 18.9467V19.5067H40.1467V18.9467H39.8667C38.4667 18.9467 38.3734 18.3867 38.3734 16.9867L38.5601 7.93335ZM37.4401 2.33335C36.6934 2.33335 36.0401 2.89335 36.0401 3.64002C36.0401 4.38668 36.6934 4.94668 37.4401 4.94668C38.1867 4.94668 38.8401 4.38668 38.8401 3.64002C38.7467 2.89335 38.1867 2.33335 37.4401 2.33335ZM24.0934 17.08V11.6667C24.0934 11.2 25.6801 9.24002 27.7334 9.24002C29.3201 9.24002 29.6934 10.08 29.6934 11.76V17.1733C29.6934 18.48 29.6001 19.1333 28.2001 19.1333H27.9201V19.6934H33.5201V19.1333H33.2401C31.8401 19.1333 31.7467 18.5733 31.7467 17.1733V11.9467C31.7467 9.61335 30.6267 8.40002 28.4801 8.40002C26.8934 8.40002 25.3067 9.14668 24.0934 10.64C24.0934 10.4533 24.0934 10.2667 24.0934 10.08C24.0934 9.33335 24.0001 8.68002 23.8134 8.02668C22.6934 8.40002 21.4801 8.58668 20.2667 8.68002V9.14668H20.6401C21.7601 9.14668 21.9467 9.52002 21.9467 11.0133V17.08V17.92C21.9467 18.5734 21.4801 19.04 20.5467 19.04H20.1734V19.6H25.7734V19.04H25.4934C24.1867 19.04 24.0934 18.3867 24.0934 17.08ZM0.666748 1.58668V2.24002C3.28008 2.24002 3.46675 2.80002 3.46675 4.76002V14.0934C3.46675 17.7334 6.17341 19.88 10.6534 19.88C15.5067 19.88 18.0267 17.64 18.0267 13.2533V4.85335C18.0267 3.36002 18.9601 2.42668 20.6401 2.33335V1.58668H14.5734V2.24002C16.4401 2.24002 17.2801 2.98668 17.2801 4.76002V13.2533C17.2801 17.08 14.8534 19.04 11.1201 19.04C9.34675 19.04 7.94675 18.3867 7.20008 17.64C6.45341 16.8 6.26675 15.5867 6.26675 13.72V4.85335C6.26675 2.89335 6.36008 2.33335 9.06675 2.33335V1.58668H0.666748Z" fill="white"/>
</svg>
