<svg width="253" height="43" viewBox="0 0 253 43" fill="none" xmlns="http://www.w3.org/2000/svg">
<g clip-path="url(#clip0_193_978)">
<path d="M0 0.5V42.5H29.4V0.5H0ZM13.6501 4.00019H14.3502V3.30035H15.0503V4.00043H15.7504V4.70052H15.0503V5.4006H14.3499V4.70052H13.6498V4.00019H13.6501ZM8.40006 34.0999H7.00013V35.4999H5.6002V34.0999H4.20028V32.7H5.6002V31.3001H7.00013V32.7H8.40006V34.0999ZM8.40006 25.6999H7.00013V27.0998H5.6002V25.6999H4.20028V24.3H5.6002V22.9H7.00013V24.3H8.40006V25.6999ZM8.40006 17.2999H7.00013V18.6998H5.6002V17.2999H4.20028V15.8999H5.6002V14.5H7.00013V15.8999H8.40006V17.2999ZM15.4288 31.9459C15.4098 32.1948 15.4002 32.4462 15.4002 32.6998C15.4002 34.782 16.0496 36.7124 17.1569 38.2997H12.2433C13.3505 36.7124 14 34.782 14 32.6998C14 32.4462 13.9901 32.1945 13.9714 31.9459C11.6108 31.594 9.80023 29.5584 9.80023 27.0998H19.6C19.6 29.5584 17.7894 31.594 15.4288 31.9459ZM16.8001 15.8999V17.2999H15.4002V18.6998H14.0003V17.2999H12.6003V15.8999H14.0003V14.5H15.4002V15.8999H16.8001ZM14.7001 20.0999C16.2465 20.0999 17.5002 21.3534 17.5002 22.9C17.5002 24.4464 16.2467 25.7001 14.7001 25.7001C13.1537 25.7001 11.9 24.4467 11.9 22.9C11.9 21.3537 13.1535 20.0999 14.7001 20.0999ZM19.6 12.7499H9.79998V11.6999H19.6V12.7499ZM20.5897 9.91647L20.0751 10.6501H18.7673L19.7037 9.29985C19.862 9.06921 19.9183 8.76596 19.9183 8.5768C19.9183 8.24713 19.8116 7.97006 19.601 7.75299C19.3493 7.49296 19.0392 7.36109 18.6784 7.36109C18.5235 7.36109 18.4132 7.37566 18.4132 7.37566L18.4099 7.37048C18.4882 7.64928 18.53 7.9182 18.53 8.17058C18.53 8.62446 18.4808 9.00994 18.2405 9.4169L17.5118 10.6506H16.2378L17.275 8.89042C17.3718 8.72842 17.4471 8.41233 17.4471 8.17082C17.4471 7.81028 17.3347 7.51939 17.1036 7.28207C16.8337 7.00303 16.523 6.86153 16.18 6.86153C15.7466 6.86153 15.434 6.98599 15.2249 7.24182V10.6509H14.1751V7.24108C13.9662 6.98525 13.6533 6.86078 13.2199 6.86078C12.8767 6.86078 12.5663 7.00228 12.2963 7.28133C12.0652 7.51864 11.9528 7.80954 11.9528 8.17008C11.9528 8.41184 12.0284 8.72768 12.125 8.88968L13.1621 10.6499H11.8881L11.1594 9.41616C10.9191 9.00945 10.87 8.62372 10.87 8.16984C10.87 7.91746 10.9117 7.64878 10.99 7.36974L10.9868 7.37492C10.9868 7.37492 10.8764 7.36035 10.7216 7.36035C10.361 7.36035 10.0506 7.49222 9.799 7.75225C9.58835 7.96932 9.48167 8.24639 9.48167 8.57606C9.48167 8.76546 9.53798 9.06846 9.69627 9.29911L10.6327 10.6494H9.32486L8.81048 9.91573C8.53044 9.51148 8.40006 9.08575 8.40006 8.57606C8.40006 7.91968 8.6307 7.3727 9.08261 6.95413C9.536 6.48642 10.0877 6.24935 10.7218 6.24935C10.9925 6.24935 11.2844 6.30442 11.5901 6.40764C11.6135 6.38147 11.637 6.35529 11.6642 6.33183C12.0793 5.94536 12.6026 5.74954 13.2202 5.74954C13.755 5.74954 14.2529 5.91375 14.7001 6.23799C15.1476 5.91375 15.6452 5.74954 16.18 5.74954C16.7976 5.74954 17.3209 5.94536 17.736 6.33183C17.7629 6.35529 17.7867 6.38147 17.8101 6.40764C18.1158 6.30442 18.4077 6.24935 18.6784 6.24935C19.3125 6.24935 19.8642 6.48642 20.3176 6.95413C20.7695 7.3727 21.0001 7.91968 21.0001 8.57606C20.9999 9.08624 20.8695 9.51222 20.5897 9.91647ZM25.1999 34.0999H23.8V35.4999H22.4001V34.0999H21.0001V32.7H22.4001V31.3001H23.8V32.7H25.1999V34.0999ZM25.1999 25.6999H23.8V27.0998H22.4001V25.6999H21.0001V24.3H22.4001V22.9H23.8V24.3H25.1999V25.6999ZM25.1999 17.2999H23.8V18.6998H22.4001V17.2999H21.0001V15.8999H22.4001V14.5H23.8V15.8999H25.1999V17.2999ZM48.9014 31.1909C48.9014 35.7377 46.283 38.295 42.4265 38.295H37.7985V24.2896H42.2235C46.2423 24.2896 48.9014 26.7862 48.9014 31.1909ZM46.9527 31.1909C46.9527 27.7199 44.9434 25.9948 42.1828 25.9948H39.6252V36.5901H42.3045C45.0244 36.5899 46.9527 34.8037 46.9527 31.1909ZM52.2104 24.2896H60.8167L60.2482 25.9948H54.0371V30.1355H59.5988V31.8407H54.0371V36.5901H60.3295L60.8977 38.2953H52.2102V24.2896H52.2104ZM69.075 31.2314C69.075 26.8675 71.7949 23.9649 75.9561 23.9649C77.519 23.9649 79.3864 24.5738 80.7668 25.3858V27.4967C79.0414 26.421 77.174 25.7105 75.9561 25.7105C73.0535 25.7105 71.0236 27.9229 71.0236 31.2314C71.0236 34.743 72.7895 36.9149 75.4079 36.9149C77.8437 36.9149 79.6097 35.3722 79.8329 32.7539H75.9154L75.3674 31.049H81.6395C81.7208 31.4347 81.7613 31.8609 81.7613 32.3276C81.7613 36.0422 79.3052 38.6605 75.4081 38.6605C71.5106 38.6603 69.075 35.7984 69.075 31.2314ZM89.3326 24.2896H90.51L96.3964 38.295H94.387L93.0271 34.8647H86.755L85.3748 38.295H83.4464L89.3326 24.2896ZM92.3569 33.2003L89.9008 27.0502L87.4244 33.2003H92.3569ZM98.934 24.2896H100.761V36.5901H107.256L107.825 38.2953H98.934V24.2896ZM110.443 24.2896H112.27V38.295H110.443V24.2896ZM115.579 31.1909C115.579 26.8472 117.953 23.9649 121.749 23.9649C123.393 23.9649 125.139 24.5738 126.417 25.5278V27.6592C124.875 26.5022 123.17 25.7105 121.749 25.7105C119.313 25.7105 117.527 27.7809 117.527 31.1909C117.527 34.7227 119.232 36.8741 121.749 36.8741C123.17 36.8741 124.875 36.0824 126.417 34.9255V37.0569C125.139 38.0108 123.393 38.6198 121.749 38.6198C117.872 38.6198 115.579 35.6562 115.579 31.1909ZM129.686 24.2896H131.513V38.295H129.686V24.2896ZM139.936 24.2896H141.114L147 38.295H144.991L143.631 34.8647H137.359L135.978 38.295H134.05L139.936 24.2896ZM142.961 33.2003L140.505 27.0502L138.028 33.2003H142.961ZM42.5322 11.4942L38.0465 4.69434H40.1981L43.6894 9.99204L47.1399 4.69434H49.2103L44.7246 11.5347L49.454 18.7H47.3024L43.5676 13.0369L39.8734 18.7H37.803L42.5322 11.4942ZM51.6667 14.0113V4.69459H53.4936V13.9301C53.4936 16.1019 54.813 17.3199 56.8426 17.3199C58.8723 17.3199 60.1917 16.1019 60.1917 13.9301V4.69459H62.0183V14.0113C62.0183 17.1574 60.0089 19.0655 56.8424 19.0655C53.6758 19.0655 51.6667 17.1574 51.6667 14.0113ZM66.0178 4.69459H67.5605L74.7256 14.681V4.69459H76.5522V18.7H75.517L67.8445 8.00315V18.7H66.0178V4.69459ZM84.6925 6.39949H79.618L79.0496 4.69459H92.1621L91.5936 6.39949H86.5192V18.7H84.6925V6.39949ZM97.3793 4.69459H98.5567L104.443 18.7H102.434L101.074 15.2697H94.8017L93.4215 18.7H91.4929L97.3793 4.69459ZM100.404 13.6053L97.9475 7.45518L95.4711 13.6053H100.404Z" fill="white"/>
</g>
<g clip-path="url(#clip1_193_978)">
<path d="M253 20.8388C252.155 20.8388 251.309 20.8352 250.464 20.8462C250.269 20.848 250.205 20.8059 250.205 20.5971C250.213 17.9649 250.213 15.3327 250.209 12.7005C250.209 11.9879 250.167 11.2791 249.998 10.5793C249.705 9.36125 248.909 8.689 247.654 8.59192C246.18 8.47835 245.052 9.09748 244.109 10.1654C243.875 10.431 243.781 10.6966 243.785 11.0593C243.807 14.252 243.801 17.4446 243.809 20.6392C243.809 20.7894 243.759 20.8407 243.612 20.8388C242.996 20.8352 242.378 20.8352 241.762 20.8443C241.601 20.8462 241.599 20.7619 241.599 20.6428C241.603 18.8459 241.604 17.0472 241.604 15.2502C241.604 12.4056 241.604 9.5609 241.599 6.71807C241.599 6.54588 241.636 6.47078 241.824 6.47445C242.404 6.48727 242.982 6.49093 243.561 6.48727C243.744 6.48727 243.811 6.54222 243.805 6.73638C243.79 7.23461 243.8 7.73467 243.8 8.30251C243.917 8.19444 243.992 8.13216 244.062 8.06072C244.924 7.17233 245.936 6.51841 247.168 6.3041C249.761 5.85349 251.83 7.16867 252.606 9.11213C252.778 9.54625 252.916 10.0005 252.829 10.4859C252.809 10.6013 252.826 10.724 252.862 10.8468C252.908 10.6416 252.954 10.4346 253 10.2295V20.8352V20.8388Z" fill="white"/>
<path d="M220.036 20.8407C219.978 20.8755 219.93 20.8993 219.886 20.9286C219.193 21.4104 218.501 21.8939 217.805 22.3683C217.75 22.4068 217.638 22.4251 217.583 22.3958C216.862 21.9983 216.077 21.8774 215.272 21.8463C214.762 21.8262 214.25 21.8207 213.741 21.8426C212.844 21.8811 212.213 22.3683 211.714 23.0717C211.082 23.9638 210.44 24.8467 209.802 25.7351C208.228 27.9276 206.389 29.8748 204.269 31.5435C203.244 32.3494 202.141 33.0601 201.072 33.8111C199.794 34.7087 198.355 35.2271 196.84 35.5531C194.854 35.9799 192.846 36.1081 190.823 35.903C190.293 35.8498 189.768 35.7491 189.244 35.6648C189.108 35.6429 188.998 35.5861 189 35.4176C189.004 34.6977 189.002 33.976 189.004 33.2561C189.004 33.2268 189.017 33.1993 189.029 33.1481C189.378 33.203 189.721 33.2616 190.064 33.3092C191.578 33.5162 193.097 33.5474 194.623 33.4283C197.669 33.192 200.267 31.9116 202.585 30.014C203.46 29.2978 204.315 28.5468 205.105 27.7408C206.286 26.5355 207.361 25.2332 208.331 23.8502C208.857 23.0974 209.36 22.3299 209.871 21.5679C209.888 21.5441 209.893 21.5148 209.913 21.469C208.731 21.1154 207.837 20.4762 207.718 19.1537C207.601 17.8531 208.393 17.0655 209.38 16.3823C209.248 16.2907 209.114 16.2028 208.984 16.1075C207.946 15.3528 207.375 14.3197 207.232 13.065C207.122 12.1015 207.17 11.1399 207.469 10.2075C207.931 8.76778 208.877 7.73103 210.19 7.01116C211.736 6.16124 213.389 5.94876 215.096 6.33892C215.813 6.50377 216.519 6.53857 217.243 6.53125C218.584 6.51476 219.924 6.52392 221.265 6.51843C221.403 6.51843 221.454 6.55506 221.452 6.69793C221.448 7.28226 221.452 7.86658 221.458 8.4509C221.459 8.59743 221.414 8.64689 221.26 8.64506C220.627 8.6359 219.994 8.63956 219.363 8.6414C219.277 8.6414 219.189 8.65422 219.145 8.65788C219.38 9.12314 219.66 9.56092 219.831 10.039C220.722 12.5485 219.926 14.9938 217.509 16.3786C216.044 17.2175 214.483 17.485 212.824 17.3036C212.446 17.2633 212.068 17.212 211.692 17.1534C211.489 17.1223 211.311 17.1479 211.177 17.3146C211.016 17.5143 210.823 17.7011 210.715 17.9282C210.42 18.5419 210.696 19.1665 211.375 19.368C211.777 19.4889 212.208 19.5548 212.629 19.5658C213.574 19.5896 214.518 19.553 215.463 19.5603C216.416 19.5676 217.363 19.6556 218.292 19.8827C218.932 20.0384 219.497 20.3388 220.034 20.8425L220.036 20.8407ZM217.539 11.7553C217.539 11.7553 217.522 11.7517 217.515 11.7498C217.502 11.5685 217.498 11.3853 217.476 11.2058C217.37 10.2661 216.976 9.48216 216.149 8.98393C214.725 8.12485 213.236 8.09737 211.731 8.74947C210.784 9.15977 210.199 9.89613 209.948 10.8926C209.767 11.6125 209.836 12.325 210.053 13.0229C210.405 14.1586 211.186 14.8601 212.332 15.1642C213.09 15.3657 213.856 15.3602 214.621 15.2319C216 15.003 216.977 14.2813 217.355 12.8947C217.456 12.5247 217.478 12.1345 217.537 11.7535L217.539 11.7553Z" fill="white"/>
<path d="M230.135 20.8444V19.7619C229.91 19.9157 229.71 20.0641 229.499 20.1941C228.368 20.892 227.152 21.273 225.809 21.121C224.014 20.9177 222.699 19.368 222.765 17.5693C222.816 16.2065 223.537 15.2412 224.597 14.4773C225.27 13.9938 226.029 13.6824 226.811 13.4186C227.861 13.0632 228.907 12.6914 229.957 12.336C230.132 12.2774 230.201 12.195 230.185 12.01C230.137 11.5136 230.146 11.0062 230.051 10.5208C229.829 9.37781 228.949 8.6616 227.77 8.64329C226.497 8.62497 225.226 8.63779 223.953 8.63779C223.649 8.63779 223.651 8.63779 223.651 8.34288C223.651 7.79703 223.656 7.25117 223.645 6.70532C223.642 6.54047 223.688 6.47086 223.86 6.47269C225.52 6.48735 227.181 6.48185 228.841 6.51665C229.472 6.52947 230.102 6.63755 230.682 6.91047C232.087 7.57356 232.785 8.72755 232.919 10.2314C232.98 10.9091 232.971 11.596 232.972 12.2774C232.978 15.0617 232.974 17.844 232.98 20.6283C232.98 20.7968 232.936 20.8499 232.761 20.8481C232.022 20.8389 231.283 20.8481 230.544 20.8481C230.416 20.8481 230.288 20.8481 230.132 20.8481L230.135 20.8444ZM230.174 13.8051C229.877 13.9168 229.626 14.0011 229.382 14.1037C228.591 14.4352 227.783 14.7338 227.02 15.1184C226.094 15.5837 225.512 16.2999 225.611 17.4209C225.69 18.302 226.381 19.0511 227.26 19.1665C228.364 19.3113 229.272 18.9028 230.06 18.1756C230.139 18.1023 230.176 17.9485 230.178 17.8331C230.183 16.6058 230.178 15.3785 230.174 14.1513C230.174 14.0487 230.174 13.9461 230.174 13.8051Z" fill="white"/>
<path d="M238.404 13.6676C238.404 15.9811 238.404 18.2945 238.408 20.6062C238.408 20.7729 238.382 20.8535 238.186 20.8498C237.585 20.837 236.983 20.8443 236.382 20.8425C236.281 20.8425 236.189 20.8498 236.191 20.6923C236.2 19.617 236.204 18.54 236.206 17.4648C236.211 14.0229 236.213 10.5811 236.217 7.13932C236.217 7.01843 236.237 6.89021 236.209 6.77664C236.149 6.53119 236.262 6.47624 236.477 6.47807C237.064 6.4854 237.651 6.48906 238.236 6.48723C238.384 6.48723 238.41 6.555 238.41 6.68322C238.408 9.01135 238.408 11.3395 238.408 13.6676H238.404Z" fill="white"/>
<path d="M237.26 28.3215C236.354 28.2849 235.661 27.5577 235.69 26.6766C235.719 25.7882 236.486 25.0757 237.372 25.1105C238.254 25.1471 238.964 25.9036 238.931 26.7755C238.898 27.6621 238.147 28.3563 237.262 28.3197L237.26 28.3215Z" fill="white"/>
<path d="M217.916 28.8709C217.916 28.4643 217.916 28.0576 217.916 27.6528C217.916 27.5924 217.893 27.5246 217.913 27.4733C217.94 27.4092 218.001 27.3598 218.048 27.3048C218.087 27.3598 218.155 27.411 218.158 27.4678C218.171 27.6492 218.162 27.8305 218.162 28.0137C218.162 28.4002 218.171 28.7867 218.162 29.1732C218.16 29.2648 218.1 29.3563 218.065 29.4479C217.973 29.3911 217.847 29.3563 217.793 29.2757C217.533 28.8764 217.291 28.4643 217.042 28.0576C217.001 27.9917 216.952 27.9294 216.908 27.8635C216.888 27.869 216.867 27.8726 216.847 27.8781C216.847 28.0393 216.847 28.1987 216.847 28.3599C216.851 28.6548 216.864 28.9515 216.855 29.2464C216.853 29.3106 216.768 29.3728 216.723 29.4369C216.675 29.3728 216.585 29.3069 216.585 29.2428C216.585 28.6603 216.596 28.076 216.611 27.4935C216.611 27.4312 216.666 27.3708 216.695 27.3103C216.765 27.3451 216.862 27.3634 216.9 27.4184C217.133 27.7554 217.352 28.1016 217.573 28.4441C217.671 28.5943 217.768 28.7464 217.865 28.8984C217.882 28.8893 217.898 28.8819 217.915 28.8728L217.916 28.8709Z" fill="white"/>
<path d="M218.892 27.9056C218.892 28.2903 218.892 28.6731 218.892 29.0578C218.892 29.1255 218.91 29.2006 218.888 29.2611C218.866 29.3252 218.806 29.3783 218.764 29.4351C218.716 29.3783 218.626 29.3215 218.626 29.2629C218.619 28.6731 218.622 28.0815 218.633 27.4916C218.633 27.4294 218.712 27.314 218.731 27.3176C218.817 27.3396 218.925 27.3726 218.969 27.4404C219.229 27.8305 219.475 28.2317 219.725 28.6292C219.78 28.7171 219.836 28.8068 219.926 28.9497C219.941 28.8343 219.956 28.7739 219.956 28.7152C219.956 28.3672 219.952 28.0192 219.95 27.6693C219.95 27.5942 219.939 27.5136 219.959 27.444C219.976 27.3891 220.031 27.3469 220.069 27.2975C220.11 27.3414 220.179 27.3836 220.185 27.4312C220.203 27.5649 220.198 27.7023 220.2 27.8378C220.201 28.2701 220.211 28.7006 220.2 29.1329C220.198 29.2391 220.13 29.3454 220.093 29.4516C220 29.3857 219.877 29.338 219.818 29.2483C219.561 28.8563 219.323 28.4496 219.077 28.0503C219.041 27.9917 218.998 27.9349 218.96 27.8763C218.938 27.8855 218.916 27.8946 218.894 27.9038L218.892 27.9056Z" fill="white"/>
<path d="M229.382 23.8264C229.752 23.8264 230.077 23.8008 230.398 23.8337C230.665 23.8612 230.847 24.0572 230.931 24.3081C231.051 24.669 231.054 25.0372 230.929 25.3998C230.83 25.6874 230.631 25.8779 230.319 25.9072C230.062 25.931 229.803 25.9347 229.545 25.9274C229.49 25.9274 229.391 25.8395 229.389 25.79C229.378 25.1416 229.382 24.4913 229.382 23.8282V23.8264ZM229.651 24.8558C229.651 24.8558 229.66 24.8558 229.666 24.8558C229.666 25.0665 229.66 25.279 229.67 25.4896C229.671 25.5482 229.697 25.6343 229.739 25.6581C229.901 25.7479 230.453 25.638 230.577 25.5043C230.84 25.224 230.83 24.4785 230.546 24.222C230.462 24.1469 230.339 24.0975 230.227 24.0755C230.095 24.0499 229.956 24.07 229.818 24.0645C229.688 24.059 229.646 24.1195 229.648 24.2422C229.653 24.4455 229.648 24.6507 229.648 24.854L229.651 24.8558Z" fill="white"/>
<path d="M222.327 24.3155C222.327 24.821 222.332 25.2607 222.321 25.6984C222.321 25.779 222.264 25.9183 222.219 25.9256C222.046 25.9494 222.065 25.8029 222.065 25.6911C222.072 25.1233 222.079 24.5554 222.092 23.9876C222.092 23.9272 222.134 23.8686 222.156 23.8099C222.226 23.8429 222.325 23.8594 222.362 23.9143C222.626 24.3027 222.877 24.7002 223.132 25.094C223.202 25.2002 223.269 25.3065 223.396 25.4017C223.396 25.3266 223.396 25.2497 223.396 25.1746C223.387 24.7881 223.376 24.4034 223.368 24.0169C223.367 23.918 223.361 23.7916 223.506 23.8173C223.559 23.8264 223.629 23.9437 223.629 24.0114C223.629 24.6012 223.618 25.1929 223.603 25.7827C223.603 25.834 223.557 25.8834 223.533 25.9347C223.469 25.9018 223.383 25.8853 223.345 25.8322C223.147 25.5556 222.958 25.2698 222.772 24.9841C222.673 24.832 222.589 24.6708 222.492 24.517C222.453 24.4565 222.402 24.4071 222.323 24.3137L222.327 24.3155Z" fill="white"/>
<path d="M232.848 25.6655C232.914 25.867 232.857 25.9384 232.677 25.9348C232.312 25.9293 231.947 25.9293 231.58 25.9348C231.436 25.9366 231.377 25.8835 231.379 25.7351C231.386 25.1599 231.386 24.5829 231.382 24.0078C231.382 23.8667 231.421 23.799 231.575 23.8026C231.933 23.8081 232.29 23.7971 232.648 23.8063C232.708 23.8063 232.767 23.8851 232.826 23.9272C232.763 23.973 232.703 24.0572 232.639 24.0609C232.373 24.0756 232.107 24.0719 231.839 24.0646C231.707 24.0609 231.65 24.0975 231.646 24.2422C231.635 24.6983 231.63 24.6983 232.088 24.6983C232.248 24.6983 232.409 24.6874 232.567 24.7075C232.633 24.7167 232.688 24.7954 232.749 24.8431C232.684 24.8852 232.622 24.9621 232.556 24.9658C232.321 24.9804 232.085 24.9749 231.848 24.9694C231.709 24.9658 231.643 25.0006 231.646 25.1618C231.665 25.7901 231.597 25.66 232.154 25.6655C232.382 25.6673 232.609 25.6655 232.844 25.6655H232.848Z" fill="white"/>
<path d="M220.229 24.8796C220.229 24.5847 220.233 24.2879 220.229 23.993C220.227 23.8593 220.273 23.8007 220.414 23.8025C220.764 23.808 221.115 23.7952 221.465 23.8099C221.535 23.8135 221.601 23.9088 221.67 23.9601C221.599 23.9949 221.527 24.0571 221.456 24.0608C221.205 24.0718 220.953 24.0681 220.702 24.059C220.557 24.0535 220.484 24.1011 220.499 24.2531C220.499 24.2678 220.499 24.2843 220.499 24.2989C220.491 24.7056 220.491 24.7056 220.904 24.7019C221.087 24.7019 221.271 24.6928 221.45 24.7129C221.507 24.7202 221.557 24.8063 221.61 24.8576C221.555 24.8942 221.504 24.9602 221.447 24.9638C221.203 24.9748 220.959 24.9767 220.717 24.9675C220.543 24.9602 220.499 25.028 220.504 25.1946C220.521 25.6727 220.515 25.6727 220.999 25.6672C221.183 25.6654 221.366 25.6562 221.548 25.6727C221.61 25.6782 221.663 25.7552 221.722 25.7991C221.667 25.8449 221.612 25.9255 221.557 25.9273C221.177 25.9383 220.796 25.931 220.414 25.9328C220.262 25.9328 220.222 25.8614 220.225 25.7203C220.234 25.4401 220.227 25.1598 220.227 24.8796C220.227 24.8796 220.231 24.8796 220.233 24.8796H220.229Z" fill="white"/>
<path d="M231.678 27.891C231.678 28.2921 231.678 28.6933 231.678 29.0944C231.678 29.1549 231.692 29.2208 231.672 29.2739C231.65 29.3344 231.595 29.3857 231.555 29.4388C231.504 29.3857 231.41 29.3307 231.41 29.2776C231.406 28.664 231.415 28.0504 231.428 27.4367C231.428 27.3946 231.472 27.3177 231.498 27.3177C231.559 27.3158 231.645 27.3305 231.678 27.3708C231.801 27.5247 231.909 27.6895 232.015 27.8544C232.237 28.1969 232.455 28.5413 232.703 28.9278C232.721 28.8343 232.74 28.7904 232.74 28.7464C232.736 28.3453 232.729 27.9441 232.727 27.543C232.727 27.4715 232.747 27.3964 232.778 27.3323C232.789 27.3103 232.884 27.2975 232.899 27.314C232.938 27.358 232.976 27.4239 232.976 27.4807C232.982 27.9276 232.976 28.3746 232.976 28.8215C232.976 28.9735 232.985 29.1256 232.976 29.2758C232.965 29.4553 232.862 29.5047 232.719 29.393C232.65 29.3399 232.597 29.2593 232.551 29.1842C232.305 28.7849 232.063 28.3819 231.821 27.9789C231.791 27.9295 231.771 27.8727 231.746 27.8177C231.722 27.8415 231.696 27.8654 231.672 27.8892L231.678 27.891Z" fill="white"/>
<path d="M220.522 28.349C220.621 28.1017 220.678 27.8233 220.829 27.6108C221.195 27.0943 222.015 27.1694 222.321 27.7262C222.538 28.1164 222.551 28.5212 222.369 28.9278C222.204 29.296 221.81 29.5158 221.426 29.4572C220.97 29.3894 220.654 29.0652 220.59 28.5981C220.579 28.523 220.581 28.4479 220.576 28.371C220.557 28.3636 220.539 28.3563 220.521 28.3472L220.522 28.349ZM222.208 28.3655C222.202 28.2904 222.2 28.2153 222.193 28.1383C222.162 27.8068 221.905 27.5449 221.597 27.5265C221.228 27.5046 220.955 27.7006 220.893 28.0577C220.862 28.2336 220.852 28.4223 220.873 28.5981C220.935 29.1055 221.447 29.3748 221.863 29.1275C222.154 28.9535 222.222 28.6769 222.208 28.3636V28.3655Z" fill="white"/>
<path d="M231.019 28.3398C231.019 28.9351 230.812 29.2758 230.4 29.4059C229.899 29.5634 229.45 29.3656 229.231 28.893C228.967 28.3196 229.2 27.6126 229.699 27.3507C230.203 27.0869 230.937 27.4386 231.005 28.087C231.016 28.1841 231.018 28.283 231.021 28.3398H231.019ZM229.402 28.4149C229.418 28.5138 229.429 28.6439 229.466 28.7648C229.541 29.0157 229.787 29.2099 230.035 29.2227C230.323 29.2392 230.544 29.1146 230.664 28.86C230.799 28.5706 230.823 28.2592 230.698 27.957C230.563 27.6236 230.321 27.488 229.98 27.5302C229.695 27.565 229.486 27.7884 229.433 28.1145C229.418 28.2042 229.413 28.294 229.4 28.4149H229.402Z" fill="white"/>
<path d="M226.767 25.8871C226.994 25.2607 227.209 24.647 227.441 24.0407C227.478 23.9455 227.594 23.8795 227.673 23.8008C227.739 23.8832 227.83 23.9546 227.869 24.0481C228.096 24.6012 228.314 25.1581 228.527 25.7168C228.551 25.7772 228.516 25.8596 228.509 25.9311C228.432 25.8999 228.349 25.8761 228.278 25.8358C228.252 25.8212 228.248 25.7681 228.232 25.7351C228.164 25.5959 228.125 25.3669 228.023 25.3339C227.808 25.2643 227.559 25.2918 227.326 25.2955C227.287 25.2955 227.236 25.3669 227.214 25.4145C227.165 25.5318 227.126 25.6563 227.088 25.779C227.038 25.9402 226.941 25.975 226.768 25.8889L226.767 25.8871ZM227.678 24.1598C227.656 24.1671 227.634 24.1726 227.612 24.1799C227.524 24.4565 227.438 24.7331 227.344 25.0244H227.984C227.872 24.713 227.775 24.4364 227.676 24.1598H227.678Z" fill="white"/>
<path d="M226.129 29.4333C225.919 29.4626 225.852 29.349 225.795 29.2043C225.633 28.794 225.63 28.7958 225.193 28.7977C225.133 28.7977 225.07 28.8068 225.012 28.794C224.849 28.761 224.771 28.838 224.735 28.9845C224.711 29.0798 224.689 29.1805 224.641 29.2629C224.595 29.3417 224.515 29.4021 224.449 29.4699C224.423 29.4553 224.399 29.4424 224.374 29.4278C224.385 29.3362 224.381 29.2391 224.41 29.153C224.601 28.6108 224.793 28.0686 224.999 27.5301C225.036 27.4367 225.135 27.3653 225.204 27.2847C225.279 27.3616 225.388 27.4239 225.426 27.5155C225.657 28.0833 225.874 28.6566 226.092 29.23C226.114 29.2886 226.116 29.3563 226.129 29.426V29.4333ZM225.241 27.6327C225.219 27.6327 225.197 27.6364 225.175 27.6364C225.083 27.9404 224.992 28.2463 224.894 28.5705C225.142 28.5541 225.329 28.5412 225.547 28.5266C225.441 28.2152 225.34 27.9239 225.241 27.6327Z" fill="white"/>
<path d="M218.056 25.8505C218.034 25.8706 217.997 25.9292 217.97 25.9256C217.902 25.9164 217.804 25.8944 217.777 25.8468C217.709 25.7223 217.687 25.5721 217.617 25.4475C217.579 25.3779 217.489 25.3284 217.41 25.2936C217.361 25.2698 217.291 25.2881 217.229 25.29C217.069 25.2918 216.871 25.2405 216.761 25.3156C216.655 25.3889 216.64 25.5922 216.583 25.7388C216.567 25.7809 216.556 25.8377 216.523 25.8578C216.464 25.8944 216.392 25.9073 216.325 25.9293C216.315 25.867 216.284 25.7974 216.303 25.7442C216.405 25.4512 216.523 25.1636 216.631 24.8723C216.739 24.5811 216.836 24.2862 216.955 24.0004C216.988 23.918 217.08 23.8594 217.146 23.7916C217.212 23.8594 217.306 23.918 217.339 23.9986C217.573 24.5738 217.795 25.1526 218.023 25.7314C218.034 25.7589 218.039 25.79 218.056 25.8505ZM216.794 25.0628C217.038 25.05 217.236 25.0409 217.465 25.028C217.366 24.7148 217.273 24.4236 217.181 24.1305C217.161 24.1305 217.141 24.1305 217.119 24.1305C217.016 24.4236 216.913 24.7166 216.792 25.0628H216.794Z" fill="white"/>
<path d="M227.926 28.6548C228.083 28.7794 228.081 28.8874 228.006 29.0193C227.823 29.3307 227.544 29.4772 227.192 29.4626C226.823 29.4479 226.519 29.2776 226.444 28.9112C226.376 28.587 226.356 28.2317 226.418 27.9093C226.49 27.5429 226.789 27.325 227.166 27.2682C227.485 27.2187 227.729 27.3744 227.907 27.6217C227.966 27.7023 227.975 27.8195 228.008 27.9203C227.979 27.9349 227.949 27.9478 227.92 27.9624C227.863 27.9001 227.801 27.8433 227.753 27.7756C227.606 27.5649 227.405 27.4935 227.157 27.5301C226.928 27.5649 226.763 27.6822 226.682 27.9038C226.576 28.1987 226.559 28.4991 226.668 28.794C226.754 29.0266 226.915 29.1915 227.179 29.2226C227.447 29.2556 227.63 29.1384 227.757 28.9094C227.803 28.8252 227.865 28.75 227.929 28.6585L227.926 28.6548Z" fill="white"/>
<path d="M224.01 24.8595C224.063 24.2972 224.34 23.8923 224.784 23.7861C225.167 23.6945 225.51 23.8411 225.686 24.1872C225.716 24.244 225.683 24.3338 225.677 24.4071C225.613 24.3796 225.52 24.3723 225.488 24.3246C225.336 24.0828 225.125 23.9784 224.85 24.0352C224.566 24.0938 224.394 24.2935 224.366 24.5719C224.342 24.8082 224.348 25.0591 224.399 25.2899C224.46 25.5574 224.68 25.7039 224.949 25.7369C225.197 25.7662 225.364 25.6233 225.481 25.4163C225.503 25.376 225.518 25.3247 225.553 25.3009C225.604 25.2661 225.668 25.2533 225.727 25.2313C225.738 25.2918 225.776 25.3669 225.754 25.4127C225.62 25.7039 225.406 25.9127 225.072 25.9494C224.738 25.986 224.432 25.9072 224.271 25.594C224.151 25.365 224.096 25.1031 224.012 24.8577L224.01 24.8595Z" fill="white"/>
<path d="M218.197 25.8798C218.395 25.5959 218.591 25.3101 218.793 25.0299C218.892 24.8925 218.921 24.7899 218.793 24.6342C218.6 24.3961 218.454 24.1232 218.283 23.8612C218.479 23.7843 218.532 23.8191 218.72 24.1067C218.822 24.2642 218.93 24.4181 219.064 24.6159C219.18 24.4437 219.27 24.299 219.371 24.1635C219.455 24.0481 219.548 23.9382 219.647 23.8338C219.677 23.8044 219.736 23.8026 219.781 23.7898C219.789 23.8429 219.818 23.9125 219.796 23.9492C219.715 24.0865 219.618 24.2129 219.526 24.3411C219.305 24.6538 219.303 24.9664 219.519 25.279C219.655 25.4768 219.781 25.6783 219.924 25.8963C219.723 25.986 219.618 25.9183 219.532 25.7827C219.378 25.5409 219.22 25.3028 219.062 25.0628C218.705 25.2881 218.716 25.8505 218.254 25.9457C218.234 25.9238 218.215 25.9018 218.195 25.8798H218.197Z" fill="white"/>
<path d="M224.443 27.3378C224.371 27.5503 224.305 27.7646 224.228 27.9734C224.071 28.3984 223.913 28.8252 223.741 29.2446C223.709 29.3216 223.62 29.4076 223.541 29.4241C223.495 29.4333 223.394 29.3234 223.367 29.2501C223.146 28.6713 222.936 28.087 222.73 27.5027C222.71 27.4477 222.75 27.3726 222.761 27.3067C222.827 27.3451 222.93 27.3671 222.95 27.4221C223.071 27.7316 223.176 28.0467 223.284 28.3617C223.368 28.609 223.445 28.86 223.583 29.1146C223.651 28.9204 223.72 28.7281 223.786 28.5339C223.904 28.1914 224.012 27.8434 224.142 27.5063C224.177 27.4147 224.274 27.3451 224.344 27.2664C224.377 27.2902 224.41 27.314 224.443 27.3378Z" fill="white"/>
<path d="M228.751 28.3782C228.751 28.6658 228.76 28.9534 228.745 29.2409C228.742 29.3087 228.661 29.3728 228.615 29.4388C228.562 29.371 228.465 29.3032 228.463 29.2354C228.456 28.6603 228.461 28.0851 228.478 27.51C228.479 27.4404 228.573 27.3744 228.622 27.3066C228.659 27.3762 228.723 27.4459 228.727 27.5155C228.74 27.803 228.732 28.0906 228.732 28.3782C228.74 28.3782 228.745 28.3782 228.753 28.3782H228.751Z" fill="white"/>
<path d="M226.198 24.8449C226.198 24.5573 226.191 24.2697 226.204 23.984C226.207 23.9217 226.29 23.8612 226.336 23.8008C226.383 23.8612 226.473 23.9217 226.473 23.9821C226.482 24.5555 226.481 25.1306 226.466 25.7039C226.464 25.7827 226.371 25.8596 226.319 25.9366C226.281 25.8596 226.215 25.7827 226.211 25.7039C226.198 25.4182 226.205 25.1306 226.205 24.843C226.202 24.843 226.2 24.843 226.196 24.843L226.198 24.8449Z" fill="white"/>
<path d="M216.117 28.369C216.117 28.6639 216.125 28.9589 216.112 29.2538C216.11 29.3179 216.04 29.3783 216 29.4388C215.947 29.3783 215.85 29.3197 215.85 29.2574C215.837 28.6676 215.837 28.0778 215.848 27.488C215.848 27.4275 215.943 27.3671 215.995 27.3066C216.035 27.3653 216.106 27.4239 216.11 27.4843C216.123 27.7792 216.116 28.0741 216.116 28.369C216.116 28.369 216.116 28.369 216.117 28.369Z" fill="white"/>
<path d="M230.401 26.8213C230.286 26.9422 230.169 27.0631 230.016 27.2243C229.983 26.8891 230.068 26.7938 230.339 26.7645C230.359 26.7847 230.381 26.803 230.401 26.8231V26.8213Z" fill="white"/>
</g>
<rect x="164" y="4" width="2" height="34" fill="white"/>
<defs>
<clipPath id="clip0_193_978">
<rect width="147" height="42" fill="white" transform="translate(0 0.5)"/>
</clipPath>
<clipPath id="clip1_193_978">
<rect width="64" height="30" fill="white" transform="translate(189 6)"/>
</clipPath>
</defs>
</svg>
